/* XPM */
static char *result[] = {
/* columns rows colors chars-per-pixel */
"64 61 235 2 ",
"   c #EC3C0D",
".  c #F43B03",
"X  c #FD3C00",
"o  c #F03D09",
"O  c #FD3400",
"+  c #EC420F",
"@  c #E9480F",
"#  c #FD4301",
"$  c #FF4C02",
"%  c #F3470C",
"&  c #FF5302",
"*  c #FE5C03",
"=  c #F9540F",
"-  c #EC4510",
";  c #EE4C11",
":  c #F34C12",
">  c #F54A13",
",  c #EE5413",
"<  c #EF5B15",
"1  c #EA5A17",
"2  c #FC5513",
"3  c #F35B13",
"4  c #FD5B13",
"5  c #F65316",
"6  c #FF6303",
"7  c #FF6C02",
"8  c #FC680B",
"9  c #FF7403",
"0  c #FF7C03",
"q  c #FF730B",
"w  c #FF7C0A",
"e  c #EF6116",
"r  c #EE671A",
"t  c #FE6415",
"y  c #FE6B15",
"u  c #F06619",
"i  c #F16C1A",
"p  c #FF6C19",
"a  c #F96717",
"s  c #FF7314",
"d  c #F2731C",
"f  c #FE731A",
"g  c #FE7C1A",
"h  c #F87B19",
"j  c #EE7B12",
"k  c #EC5C20",
"l  c #F36726",
"z  c #F37C22",
"x  c #F47829",
"c  c #F16C31",
"v  c #F67837",
"b  c #EF6023",
"n  c #DF5E10",
"m  c #F27E46",
"M  c #FF8302",
"N  c #FF8C04",
"B  c #FF830B",
"V  c #FF8B0B",
"C  c #FF9304",
"Z  c #FF9B04",
"A  c #FF920A",
"S  c #FF9C0B",
"D  c #FF8314",
"F  c #FB8719",
"G  c #FE9414",
"H  c #FF9C13",
"J  c #FF9C1C",
"K  c #FF951A",
"L  c #FFA404",
"P  c #FFAB05",
"I  c #FFA30B",
"U  c #FFAA0C",
"Y  c #F1A40B",
"T  c #FFB404",
"R  c #FFBD05",
"E  c #FFB30B",
"W  c #FFBB0C",
"Q  c #FFA215",
"!  c #FFAD14",
"~  c #FFA51B",
"^  c #FFAB1C",
"/  c #FFB414",
"(  c #FFBB13",
")  c #FFBC1A",
"_  c #FCB41A",
"`  c #E8A60E",
"'  c #F38122",
"]  c #FC8C25",
"[  c #F68A28",
"{  c #FC9323",
"}  c #FD9B23",
"|  c #F4912A",
" . c #FD992C",
".. c #F58A36",
"X. c #F89938",
"o. c #FFA325",
"O. c #FEAB23",
"+. c #F6AE2B",
"@. c #FBAD2A",
"#. c #FFA42B",
"$. c #FFB423",
"%. c #FFBC24",
"&. c #FCB32B",
"*. c #FFBC2C",
"=. c #F7B02D",
"-. c #FAA638",
";. c #FAB432",
":. c #FFBB34",
">. c #FDBC3B",
",. c #FCB539",
"<. c #FFC304",
"1. c #FFCB05",
"2. c #FFC40A",
"3. c #FFCB0D",
"4. c #F7C807",
"5. c #FFD205",
"6. c #FFD40A",
"7. c #FFDC09",
"8. c #FFDB06",
"9. c #FFC313",
"0. c #FFCD14",
"q. c #FFC31C",
"w. c #FFCC1D",
"e. c #FFD313",
"r. c #FFDC14",
"t. c #FFDC1C",
"y. c #FFD51C",
"u. c #EBC209",
"i. c #FFE40C",
"p. c #FFEC0A",
"a. c #FDE507",
"s. c #FFF40C",
"d. c #FFFC0B",
"f. c #FFE51C",
"g. c #FEE916",
"h. c #FFFF13",
"j. c #FFF41C",
"k. c #FFFC1B",
"l. c #FFF511",
"z. c #EFE413",
"x. c #FFC325",
"c. c #FFCC25",
"v. c #FFC32D",
"b. c #FFCB2D",
"n. c #FFD324",
"m. c #FFDA25",
"M. c #FFD42D",
"N. c #FFDB2C",
"B. c #FFC332",
"V. c #FFCB32",
"C. c #FFCC3B",
"Z. c #FFC33C",
"A. c #FFD433",
"S. c #FFDB33",
"D. c #FFD53B",
"F. c #FFDB3A",
"G. c #FFED25",
"H. c #FFE42D",
"J. c #FFEB2E",
"K. c #FFE422",
"L. c #FFF424",
"P. c #FFFE23",
"I. c #FFF32E",
"U. c #FFFD2C",
"Y. c #FFE332",
"T. c #FFEC33",
"R. c #FFE63D",
"E. c #FFF433",
"W. c #FFFD34",
"Q. c #FFF439",
"!. c #FFFE3B",
"~. c #EEEA29",
"^. c #F68648",
"/. c #F69B46",
"(. c #F79957",
"). c #F48F54",
"_. c #FBA945",
"`. c #FEB44B",
"'. c #FCBA47",
"]. c #FDA858",
"[. c #FCB852",
"{. c #FEA767",
"}. c #FFB864",
"|. c #F49961",
" X c #FFC749",
".X c #FFD747",
"XX c #FFC659",
"oX c #FFD45B",
"OX c #FFDB5C",
"+X c #FFD653",
"@X c #FFE849",
"#X c #FFFE44",
"$X c #FFFE4B",
"%X c #FFF448",
"&X c #FFE658",
"*X c #FFFE53",
"=X c #FFFE5B",
"-X c #FFF156",
";X c #FEC869",
":X c #FFD263",
">X c #FFD86B",
",X c #FFCA76",
"<X c #FFD573",
"1X c #FFD779",
"2X c #FFEA6B",
"3X c #FFFC69",
"4X c #FFEA74",
"5X c #FFE57C",
"6X c #FFFE74",
"7X c #FFFE7C",
"8X c #FFF37A",
"9X c #FFDA86",
"0X c #FFDD92",
"qX c #FFE989",
"wX c #FFFE85",
"eX c #FFFE8B",
"rX c #FFF389",
"tX c #FFE998",
"yX c #FFFE93",
"uX c #FFFE9B",
"iX c #FFF198",
"pX c #FFFFA4",
"aX c #FFFFAB",
"sX c #FFF6AB",
"dX c #FFFEB4",
"fX c #FFFFBC",
"gX c #FFEFA2",
"hX c #FFFFC3",
"jX c #FFFFCC",
"kX c #FFFFD6",
"lX c #FFFFEB",
"zX c #FFFFE3",
"xX c #FFFFF3",
"cX c #FFFFFD",
"vX c None",
/* pixels */
"vXvXvXvXvXvXvXvXvXvXvXvXvXvXvXvXvXvXvXvXvXvXvXvXvXvXvXvXvX; @ - - vXvXvXvXvXvXvXvXvXvXvXvXvXvXvXvXvXvXvXvXvXvXvXvXvXvXvXvXvXvXvX",
"vXvXvXvXvXvXvXvXvXvXvXvXvXvXvXvXvXvXvXvXvXvXvX, < < e e r n 1 , , ; ; - -     vXvXvXvXvXvXvXvXvXvXvXvXvXvXvXvXvXvXvXvXvXvXvXvXvX",
"vXvXvXvXvXvXvXvXvXvXvXvXvXvXvXvXvXvXvXvX< 3 u r r d d d r r r r < , , , ; @ + o     vXvXvXvXvXvXvXvXvXvXvXvXvXvXvXvXvXvXvXvXvXvX",
"vXvXvXvXvXvXvXvXvXvXvXvXvXvXvXvXvXvX1 r u i d z ' ' ' h z z z n r u < 1 : % % . . o       vXvXvXvXvXvXvXvXvXvXvXvXvXvXvXvXvXvXvX",
"vXvXvXvXvXvXvXvXvXvXvXvXvXvXvXvX1 u u d z ' ' | [ | | | | ' ' z d d i 8 * = # # X . . o       vXvXvXvXvXvXvXvXvXvXvXvXvXvXvXvXvX",
"vXvXvXvXvXvXvXvXvXvXvXvXvXvX1 u i z x [ [ | | | +.X.X.X.X.X.| | { ] F g q 6 & $ # X X . o       vXvXvXvXvXvXvXvXvXvXvXvXvXvXvXvX",
"vXvXvXvXvXvXvXvXvXvXvXvXvX< l x ....| X.X.-.-._._._.[.[.[./._.+.#.#.^ ~ S M 7 6 & & # # . .         vXvXvXvXvXvXvXvXvXvXvXvXvXvX",
"vXvXvXvXvXvXvXvXvXvXvXvXb c .././.X._._.'.'.[.XX;X;X,X;X;X[.'.'.>.*.v.) ( P L M 0 7 6 $ # . .         vXvXvXvXvXvXvXvXvXvXvXvXvX",
"vXvXvXvXvXvXvXvXvXvX1 c v ^.].].`.`.[.XXXX>X<X9X0X0X0X9X,X;X;X'. XV.M.N.y.3.R T L C N 7 * $ #           vXvXvXvXvXvXvXvXvXvXvXvX",
"vXvXvXvXvXvXvXvXvXb c ^.).].}.[.XXXXoX>X2X5XqXtXsXsXgXtXqX>X;X+X XA.S.Q.!.3XQ.5.1.2.P A w 6 & # o         vXvXvXvXvXvXvXvXvXvXvX",
"vXvXvXvXvXvXvXvXk c ^.|.{.}.;X;X+XoX4X8XrXyXpXdXhXfXuXrXqX4X>X+X.X.XA.H.L.!.=X*Xi.W.K.T C 0 7 & #           vXvXvXvXvXvXvXvXvXvX",
"vXvXvXvXvXvXvXvXc ^.|.{.}.;X;X;X2X8XyXuXaXdXjXlXlXhXuXwXeXeX4X2X+XF.S.S.N.K.G.L.$XW.W.T.U A B 7 & #           vXvXvXvXvXvXvXvXvX",
"vXvXvXvXvXvXvXc m |.{.].}.;X<XqXaXfXdXhXjXjXxXcXcXxXfXeXyXyX7X&X@XR.Y.S.N.M.N.t.6.t.!.$Xc.S V 0 6 $ # o         vXvXvXvXvXvXvXvX",
"vXvXvXvXvXvXb v ).(./.`.;X9XqXfXxXxXxXlXlXlXcXcXcXcXlXfXaXyX6X&X@XR.S.N.M.M.c.c.q.2.2.N.S.%.S N M * # . o         vXvXvXvXvXvXvX",
"vXvXvXvXvX1 c ^.(.(./.}.9X0XtXkXxXcXxXkXhXhXkXcXcXcXxXhXpXwX2X&X.XS.S.M.M.c.v.x.%./ P L Z ! H C C 9 $ X . o       vXvXvXvXvXvXvX",
"vXvXvXvXvXr v /././.[.1X0X9XiXdXfXdXaXaXpXaXhXjXzXlXjXaXeX2XOX.XC.V.v.v.v.*.*.*.%.O.Q C N C N N N 0 & X O .         vXvXvXvXvXvX",
"vXvXvXvX1 x .././._.>XqX<X,XqXuXuXyXeXyXuXpXaXaXdXdXiXqX4XoX XC.B.*.*.&.&.&.&.&.&.&.~ H C C V N N M * X X O .       vXvXvXvXvXvX",
"vXvXvXvXl x ../.].XX4X4X<X,XqXrXeXwXwXwXyXyXiXiXtX9X5X1X:X+X X:.*.&.=.+.+.+.+.=.&.v.v.%./ E U S Z L 0 & X X X .       vXvXvXvXvX",
"vXvXvX< r ' ../.`.XX2X2X<X,X1X4X4X2X4X8XqX5X1X1X<X>X:XoX.XC.C.V.v.&.=.@.+.+.+.+.&.*.:.x.q.( E ! Z P L 0 & * $ .       vXvXvXvXvX",
"vXvXvX< d x | /.`.+X3X2XXXXXXXOXoXoXoX>X>X<X<X<X:X+X+X@X@XD.A.A.A.V.v.=.+.+.;.=.=.=.@.@._ / P I A N C 0 7 9 7 # .       vXvXvXvX",
"vXvX, u d z ..X._.+X-X&X X'. X X X'.XXXXXX:X:XOX&X%X$X#XQ.R.Y.S.S.S.S.V.:.;.-._.=.=.@.@.$.^ L L C 0 9 9 7 0 7 # . o     vXvXvXvX",
"vXvX, < r x [ +.@..X@XD.;.;.:.Z.>.'.'.'.+X&X&X%X$X#X#X#X!.E.Q.Q.Q.Q.Q.Q.Y..XK z B.&.*.&.*._ ! L A B 7 7 7 9 6 $ . .     vXvXvXvX",
"vXvX, < i F { @.&.A.R.D.:.+.:.:.,.;.,.D.@X$X%X#X#X#X!.!.W.W.E.T.T.Q.Q.!.#XF.$.g +XV.b.v.b.v./ W P A M 9 0 M 7 $ X # o     vXvXvX",
"vXvX, 3 p F o.%.v.N.R.S.&.+.&.v.*.;.B.R.%XR.F.V.S.Y.T.I.E.E.T.H.Y.A.V.*.v.H.H.K ^ o.@.*.A.N.m.e.2.E I Z M C M * & $ % +   vXvXvX",
"vX- ; 3 f J x.n.m.H.T.Y.v.=.&.B.*.&.B.D.b.*.&.=.*.b.M.G.U.!.!.E.E.#X} ^ m.n.L.$.n.c.^ D.Q.I.P.j.7.6.2.<.L L P 0 7 & % +   vXvXvX",
"vX- ; 4 g ~ n.G.L.K.T.T.A.&.&.v.*.+.&.&.&.+.=.=.&.*.v.M.H.!.#X#X$X$X*XZ.o.^ n.q.~ ^ @XW.W.W.W.!.U.k.i.7.<.T <.L 0 & $ % @ vXvXvX",
"vX+ ; 3 g O.y.j.k.j.K.T.H.*.&.:.*.@.=.+.+.+.+.+.=.*.*.b.N.H.H.J.J.E.*XwX*X*XC.v.N.x.!.W.W.!.3X6X=X!.k.s.8.R 8.R M 9 * % - o vXvX",
"vX+ - 1 ..Q ( z.~.!.G.L.H.c.*.*.:.&.+.+.+.+.+.+.+.+.&.*.b.N.H.I.I.I.3XeX%Xb.M. X@X@X6X3XwXaXjXhXuX#X!.h.a.5.5.<.P M 7 = : + vXvX",
"vX+ @ 1 j G ` u.z.eX7XL.L.N.v.*.v.&.+.+.+.+.+.+.+.+.=.%.v.c.N.H.I.U.U.-XF.2XuXjXpXuXjXjXxXcXlXkXfX=XU.d.a.8.1.<.T N 9 2 ; + vXvX",
"vX  ; @ n V ` 4.z.W.wX*XL.L.N.b.v.&.+.+.+.+.+.+.+.+.+.&.*.b.M.H.J.U.W.@X6XuXjXjXzXxXxXcXcXcXlXjXeX#Xh.d.i.6.T R T M 7 3 ; + vXvX",
"vX+ - , a A E R 8.s.P.!.j.L.G.M.V.&.+.+.+.+.+.+.+.+.+.&.*.v.M.N.H.I.U.!.=X7XeXpXpXpXyXyXyXeX7X=X#XU.h.s.6.R Z Z C 7 * 3 ; + vXvX",
"vX  - ; y G U T 1.j.!.$Xk.L.G.H.A.v.=.=.+.+.+. X+.+.+.=.&.*.v.b.M.M.N.E.!.$X$X$X*X*X=X$X$X$X#XW.U.L.j.6.R L V 0 7 * * 3 , @ vXvX",
"vX  - ; y G I P <.5.U.6X$Xj.L.H.Y.A.*.=.+.+.+.,.=.+.+.+.+.+.&.&.*.*.v.c.S.J.E.W.W.W.W.W.U.E.E.I.J.K.t.6.W Z V q & * * 1 , + vXvX",
"vX  - > f H Z L R 5.7.aXaXU.f.K.H.Y.A.*.&.+.;.| >.+.+.+.+.+.+.+.=.=.&.%.v.v.M.N.H.Y.J.J.J.T.N.N.M.N.c.9.E Z V 9 & * 6 3 , @ vXvX",
"vX  - ; p K A Z W 1.8.g.dX=Xg.f.H.Y.Y.A.b.*.'.' X.+.+.+.+.+.+.+.@.+.=.=.&.&.*.%.b.N.S.H.N.N.b.v.v.x.q.9.P S V q 6 6 8 3 , - vXvX",
"vX    - t G V N L <.8.6.j.U.U.j.K.G.H.S.F.D.#.] e '.=.=.+.+.+.+.+.+.+.+.+.@.=.&.v.Y.U.W.!.J.b.v.*.*.q.9.P I C 9 7 7 8 , 3 vXvXvX",
"vX  - - 4 D D 0 N L R 2.6.k.#XP.j.L.Q.D.=.] @.#.d [ ..X.-.,.+.+.+.+.+.+.+.+.+.v.H.W.#X6X6X*XQ.b.*.&.x.W P U C M M w y e , vXvXvX",
"vXvX  - 4 f g B B V Z P P 1.L.*X3X#X@XU ! K F } F o.{ d ..,.Z.OX;.+.+.+.+.+.&.b.E.#XyXkXkXuX$XA.*.%.q.W P E U N A V i e , vXvXvX",
"vXvX    2 p s w B w 9 M N Z R i.p.s.l.I.0 6 n F j n 1 X.Z.>.+XOX+.+.+.+.+.@.*.S.#X3XjXcXxXhX=XS.v.%.q.W E x.v.S Q D i e , vXvXvX",
"vXvX  - : p t y B B 7 * 6 q 0 S T 1.5.6.N.M L 8 A D { &.O.@.+.+.+.+.+.+.&.*.v.V.J.!.7XdXdXwX%Xb.v.%.9.W W b.D.! H h d < vXvXvXvX",
"vXvXvX- > t p t q B q * $ & * 7 M Z L P G 0 * & * A w %.O.O.+.+.+.+.+.&.*.B.*.*.M.I.!.#X$X!.S.V.*.x.q.9.W V.@XO.G d i 1 vXvXvXvX",
"vXvXvX  - 2 p t 8 w V w = $ $ $ * 7 0 C 6 X $ } s $ 9 $.Q o.O.@.+.&.&.*.*.*.&.=.*.M.Y.J.H.A.b.*.v.c.w.9./ @X-XO.F d u , vXvXvXvX",
"vXvXvX  - > t t 4 q V G q $ $ $ # & 6 0 & M M M M S q H S ~ o.@.$.*.*.*.&.&.@.+.&.V.v.b.V.v.*.&.b.M.c.x.%.=X-X#.h d u vXvXvXvXvX",
"vXvXvXvX  - 5 2 3 t g A A q $ $ $ $ * 6 7 9 9 0 M M N C S S ! _ %.$.$.^ ~ O.@.O.*.v.v.B.&.&.&.V.A.M.c.%.A.6X-X .h r , vXvXvXvXvX",
"vXvXvXvX  - - : : t s V S J q & * * 6 7 7 9 0 N Z T P L P / / / ! ! Q Q Q ~ ^ $.x.b.v.*.@.&.v.A.S.V.v.b.-XwXOX] d e vXvXvXvXvXvX",
"vXvXvXvXvX+ + - : 4 s G Q E &.q t 6 8 q B V L R 5.a.a.8.3.W ( / / Q Q S I U / q.w.w.%.$.O.*.V.S.A.v.*.F.3XwX`.h u , vXvXvXvXvXvX",
"vXvXvXvXvXvX+ - % 4 g H / ( W @X,._.s 9 V I 1.i.s.s.s.l.g.r.9.( / ! U U U W 9.0.w.9.) $.&.b.A.A.V.*.v.@X3X:XX.d 3 vXvXvXvXvXvXvX",
"vXvXvXvXvXvX  - ; 4 s G _ ) ) c.7XeX-.0 N T 2.g.k.P.k.h.d.g.0.9.( / / / 9.0.0.e.e.9.) ) c.A.S.V.*.*.V.C.[.X.f e vXvXvXvXvXvXvXvX",
"vXvXvXvXvXvXvX- > = 8 F Q / _ $.-X2Xo.M C W 6.s.k.wXhX7XP.p.9.) ( ) q.w.t.t.f.r.r.0.w.n.M.M.V.V.*.v.@. .] d u , vXvXvXvXvXvXvXvX",
"vXvXvXvXvXvXvXvX+ % = y D G J K J J A N C P 1.i.d.d.h.h.d.8.3.2.W 9.w.t.f.f.f.f.f.t.m.m.M.M.v.&.*.#.| F d i , vXvXvXvXvXvXvXvXvX",
"vXvXvXvXvXvXvXvXvX> % 2 4 s D D g g D V M A L T 1.a.p.p.a.8.6.9.e.e.e.i.g.g.f.G.K.m.m.N.M.b.&.o.} | F d i , vXvXvXvXvXvXvXvXvXvX",
"vXvXvXvXvXvXvXvXvXvX+ % % > 4 t y f f s q 9 0 M C T <.1.6.6.t.r.r.r.7.7.8.6.e.y.m.N.N.M.M.v.@.} [ ' d r 3 vXvXvXvXvXvXvXvXvXvXvX",
"vXvXvXvXvXvXvXvXvXvXvX+ @ + % > 2 t p p t t 8 7 0 M L T W 3.e.g.g.i.8.3.<.W P ) x.b.b.b.v.*.o.] ' d i 1 vXvXvXvXvXvXvXvXvXvXvXvX",
"vXvXvXvXvXvXvXvXvXvXvXvX+ + + + % > 2 p y p t t 8 q B A L W 1.6.8.6.2.T L Z S H O.:.Z.Z.#.} ] z i e , vXvXvXvXvXvXvXvXvXvXvXvXvX",
"vXvXvXvXvXvXvXvXvXvXvXvXvX+ + - -   % > 2 p l f p p f D G Q E W W / U Q G G ~ @.>.+XrX:X..z d u e vXvXvXvXvXvXvXvXvXvXvXvXvXvXvX",
"vXvXvXvXvXvXvXvXvXvXvXvXvXvXvX+ -   - + ; : 4 t f f f f s D F K K J J J } ,.'.XX;XiXjX9X[ i e 3 vXvXvXvXvXvXvXvXvXvXvXvXvXvXvXvX",
"vXvXvXvXvXvXvXvXvXvXvXvXvXvXvXvX  - - -   - - > 2 t p t t p f g ] X.-._.[.,X9XiXgXsXsX].a 1 vXvXvXvXvXvXvXvXvXvXvXvXvXvXvXvXvXvX",
"vXvXvXvXvXvXvXvXvXvXvXvXvXvXvXvXvXvX    -   -   - - > > 2 p f l x /.].{.,X0XtXtX9X].v 5 vXvXvXvXvXvXvXvXvXvXvXvXvXvXvXvXvXvXvXvX",
"vXvXvXvXvXvXvXvXvXvXvXvXvXvXvXvXvXvXvXvXvX    -       - > 2 2 2 4 l v |.{.{.m l , ; vXvXvXvXvXvXvXvXvXvXvXvXvXvXvXvXvXvXvXvXvXvX",
"vXvXvXvXvXvXvXvXvXvXvXvXvXvXvXvXvXvXvXvXvXvXvXvX        o +       > > > > > > vXvXvXvXvXvXvXvXvXvXvXvXvXvXvXvXvXvXvXvXvXvXvXvXvX",
"vXvXvXvXvXvXvXvXvXvXvXvXvXvXvXvXvXvXvXvXvXvXvXvXvXvXvXvXvXvXvXvXvXvXvXvXvXvXvXvXvXvXvXvXvXvXvXvXvXvXvXvXvXvXvXvXvXvXvXvXvXvXvXvX"
};
