/* XPM */
static char *_4bb15e77eae4d7581f474dee431e52fsPkRYqqGkFfltwtk[] = {
/* columns rows colors chars-per-pixel */
"64 64 56 1 ",
"  c #415282",
". c #3C696D",
"X c #398059",
"o c #449066",
"O c #4FA073",
"+ c #66C18F",
"@ c #61B988",
"# c #54A779",
"$ c #47956A",
"% c #449167",
"& c #408A61",
"* c #418C63",
"= c #47946A",
"- c #50A174",
"; c #5CB383",
": c #65C08E",
"> c #64BF8D",
", c #5CB384",
"< c #3E875F",
"1 c #3C855D",
"2 c #438F65",
"3 c #57AB7D",
"4 c #62BC8B",
"5 c #5FB787",
"6 c #469368",
"7 c #4A986D",
"8 c #3A825A",
"9 c #5AB081",
"0 c #56AA7C",
"q c #3B835B",
"w c #4E9E72",
"e c #4C9B70",
"r c #63BD8C",
"t c #469369",
"y c #438E65",
"u c #479469",
"i c #408A62",
"p c #64BD8C",
"a c #56AB7C",
"s c #4E9F72",
"d c #63BC8B",
"f c #428C63",
"g c #5BB182",
"h c #5FB887",
"j c #57AC7D",
"k c #65BF8D",
"l c #5DB484",
"z c #48966B",
"x c #3E8860",
"c c #3D855D",
"v c #61BA89",
"b c #55A87A",
"n c #459268",
"m c #408B62",
"M c #48956B",
"N c #50A275",
/* pixels */
"          .XXXXXXXXXXXXXXXXXXXXXXXXXXXXXXXXXXXXXXXXXX.          ",
"          .XXXXXXXXXXXXXXXXXXXXXXXXXXXXXXXXXXXXXXXXXX.          ",
"          .XXXXXXXXXXXXXXXXXXXXXXXXXXXXXXXXXXXXXXXXXX.          ",
"          .XXXXXXXXXXXXXXXXXXXXXXXXXXXXXXXXXXXXXXXXXX.          ",
"          .XXXXoOOOOOOOOOOOOOOOOOOOOOOOOOOOOOOOOoXXXX.          ",
"          .XXXXO++++++++++++++++++++++++++++++++OXXXX.          ",
"          .XXXXO++++++++++++++++++++++++++++++++OXXXX.          ",
"          .XXXXO++++++++++++++++++++++++++++++++OXXXX.          ",
"          .XXXXO++++++++++++++++++++++++++++++++OXXXX.          ",
"          .XXXXO++++++++++++++++++++++++++++++++OXXXX.          ",
"          .XXXXO++++++++++++++++++++++++++++++++OXXXX.          ",
"          .XXXXO+++++++++++@#$%&*=-;:+++++++++++OXXXX.          ",
"          .XXXXO+++++++++>,$<XXXXX1234++++++++++OXXXX.          ",
"          .XXXXO+++++++++56XXXXXXXXX&3++++++++++OXXXX.          ",
"          .XXXXO++++++++478XXXXXXXXXX*9+++++++++OXXXX.          ",
"          .XXXXO++++++++0&XXXXXXXXXXXqw:++++++++OXXXX.          ",
"          .XXXXO++++++++eXXXXXXXXXXXXX2r++++++++OXXXX.          ",
"          .XXXXO++++++++tXXXXXXXXXXXXX&;++++++++OXXXX.          ",
"          .XXXXO++++++++yXXXXXXXXXXXXX<;++++++++OXXXX.          ",
"          .XXXXO++++++++uXXXXXXXXXXXXXi;++++++++OXXXX.          ",
"          .XXXXO++++++++eXXXXXXXXXXXXX2p++++++++OXXXX.          ",
"          .XXXXO++++++++a&XXXXXXXXXXXqs:++++++++OXXXX.          ",
"          .XXXXO++++++++d78XXXXXXXXXXfg+++++++++OXXXX.          ",
"          .XXXXO+++++++++huXXXXXXXXXij++++++++++OXXXX.          ",
"          .XXXXO+++++++++klzxXXXXXcojd++++++++++OXXXX.          ",
"          .XXXXO+++++++++++vbznmfMNl:+++++++++++OXXXX.          ",
"          .XXXXO++++++++++++++++++++++++++++++++OXXXX.          ",
"          .XXXXO++++++++++++++++++++++++++++++++OXXXX.          ",
"          .XXXXO++++++++++++++++++++++++++++++++OXXXX.          ",
"          .XXXXO++++++++++++++++++++++++++++++++OXXXX.          ",
"          .XXXXO++++++++++++++++++++++++++++++++OXXXX.          ",
"          .XXXXO++++++++++++++++++++++++++++++++OXXXX.          ",
"          .XXXXO++++++++++++++++++++++++++++++++OXXXX.          ",
"          .XXXXO++++++++++++++++++++++++++++++++OXXXX.          ",
"          .XXXXO++++++++++++++++++++++++++++++++OXXXX.          ",
"          .XXXXO++++++++++++++++++++++++++++++++OXXXX.          ",
"          .XXXXO++++++++++++++++++++++++++++++++OXXXX.          ",
"          .XXXXO++++++++++++++++++++++++++++++++OXXXX.          ",
"          .XXXXO++++++++++++++++++++++++++++++++OXXXX.          ",
"          .XXXXO++++++++++++++++++++++++++++++++OXXXX.          ",
"          .XXXXO++++++++++++++++++++++++++++++++OXXXX.          ",
"          .XXXXO++++++++++++++++++++++++++++++++OXXXX.          ",
"          .XXXXO++++++++++++++++++++++++++++++++OXXXX.          ",
"          .XXXXO++++++++++++++++++++++++++++++++OXXXX.          ",
"          .XXXXO++++++++++++++++++++++++++++++++OXXXX.          ",
"          .XXXXO++++++++++++++++++++++++++++++++OXXXX.          ",
"          .XXXXO++++++++++++++++++++++++++++++++OXXXX.          ",
"          .XXXXO++++++++++++++++++++++++++++++++OXXXX.          ",
"          .XXXXO++++++++++++++++++++++++++++++++OXXXX.          ",
"          .XXXXO++++++++++++++++++++++++++++++++OXXXX.          ",
"          .XXXXO++++++++++++++++++++++++++++++++OXXXX.          ",
"          .XXXXO++++++++++++++++++++++++++++++++OXXXX.          ",
"          .XXXXO++++++++++++++++++++++++++++++++OXXXX.          ",
"          .XXXXO++++++++++++++++++++++++++++++++OXXXX.          ",
"          .XXXXO++++++++++++++++++++++++++++++++OXXXX.          ",
"          .XXXXO++++++++++++++++++++++++++++++++OXXXX.          ",
"          .XXXXO++++++++++++++++++++++++++++++++OXXXX.          ",
"          .XXXXO++++++++++++++++++++++++++++++++OXXXX.          ",
"          .XXXXO++++++++++++++++++++++++++++++++OXXXX.          ",
"          .XXXXO++++++++++++++++++++++++++++++++OXXXX.          ",
"          .XXXXoOOOOOOOOOOOOOOOOOOOOOOOOOOOOOOOOoXXXX.          ",
"          .XXXXXXXXXXXXXXXXXXXXXXXXXXXXXXXXXXXXXXXXXX.          ",
"          .XXXXXXXXXXXXXXXXXXXXXXXXXXXXXXXXXXXXXXXXXX.          ",
"          .XXXXXXXXXXXXXXXXXXXXXXXXXXXXXXXXXXXXXXXXXX.          "
};