/* XPM */
static char *result[] = {
/* columns rows colors chars-per-pixel */
"64 102 256 2 ",
"   c #010101",
".  c #0B0B0B",
"X  c #080606",
"o  c #140D05",
"O  c #191309",
"+  c #090C17",
"@  c #0E121B",
"#  c #1B1B1B",
"$  c #151414",
"%  c #251A04",
"&  c #241A13",
"*  c #311D0D",
"=  c #2A261A",
"-  c #34260C",
";  c #171A25",
":  c #151B2F",
">  c #2B2A27",
",  c #373737",
"<  c #35312E",
"1  c #1A2138",
"2  c #533804",
"3  c #4F2F12",
"4  c #69320E",
"5  c #4D3A2A",
"6  c #165D36",
"7  c #574509",
"8  c #674609",
"9  c #7A560B",
"0  c #775616",
"q  c #684A13",
"w  c #484738",
"e  c #534B3A",
"r  c #704C32",
"t  c #746839",
"y  c #1E2845",
"u  c #232C4A",
"i  c #2E364E",
"p  c #303C68",
"a  c #33436D",
"s  c #374678",
"d  c #395074",
"f  c #424243",
"g  c #4B4A4A",
"h  c #545454",
"j  c #5A5A5B",
"k  c #555248",
"l  c #665C4E",
"z  c #67664C",
"x  c #7A775A",
"c  c #746B53",
"v  c #515D74",
"b  c #646464",
"n  c #6C6C6B",
"m  c #676767",
"M  c #79776A",
"N  c #737373",
"B  c #7C7C7B",
"V  c #706E6E",
"C  c #5A615B",
"Z  c #443F52",
"A  c #CA3A00",
"S  c #845A09",
"D  c #B74804",
"F  c #94690C",
"G  c #AC7410",
"H  c #95592E",
"J  c #8F7435",
"K  c #BA752A",
"L  c #BB6A38",
"P  c #BD7635",
"I  c #AD652E",
"U  c #B15927",
"Y  c #C54701",
"T  c #CC5405",
"R  c #D55304",
"E  c #D57308",
"W  c #C77539",
"Q  c #C66D32",
"!  c #886648",
"~  c #817A5C",
"^  c #956955",
"/  c #AA795A",
"(  c #B1724E",
")  c #8C776B",
"_  c #AA7868",
"`  c #C87A49",
"'  c #D37B44",
"]  c #A03800",
"[  c #00CA66",
"{  c #B1830A",
"}  c #BF813C",
"|  c #CC910C",
" . c #E88503",
".. c #FB9B01",
"X. c #F59703",
"o. c #EB9A12",
"O. c #FCA905",
"+. c #FDB409",
"@. c #F7AC12",
"#. c #FEB613",
"$. c #ECAA13",
"%. c #CF8A29",
"&. c #FAB827",
"*. c #E2A119",
"=. c #FFC613",
"-. c #FFCB0A",
";. c #FEC335",
":. c #FEFE00",
">. c #B48B58",
",. c #8A8568",
"<. c #9B966D",
"1. c #989675",
"2. c #928672",
"3. c #B08F70",
"4. c #AEA578",
"5. c #91895E",
"6. c #CC8455",
"7. c #D18852",
"8. c #E8B048",
"9. c #D79769",
"0. c #DC9D72",
"q. c #C48D67",
"w. c #E29B6C",
"e. c #E29E72",
"r. c #CFA977",
"t. c #E4A275",
"y. c #E6A57A",
"u. c #EAA97D",
"i. c #E9A679",
"p. c #F4AC7D",
"a. c #E9A56E",
"s. c #DAA650",
"d. c #FAC446",
"f. c #F9CE58",
"g. c #FAD468",
"h. c #F2D371",
"j. c #E5E469",
"k. c #3C4C83",
"l. c #3F5389",
"z. c #2E5A93",
"x. c #2C70B4",
"c. c #3E6494",
"v. c #445889",
"b. c #465A98",
"n. c #414D85",
"m. c #4E668C",
"M. c #73758C",
"N. c #4B64A8",
"B. c #526BB6",
"V. c #5276AF",
"C. c #495FA1",
"Z. c #5E7BD5",
"A. c #5B78C8",
"S. c #607ED6",
"D. c #627EE0",
"F. c #8C7B8C",
"G. c #5286BD",
"H. c #748FB9",
"J. c #7ECD8C",
"K. c #568CCA",
"L. c #5685D4",
"P. c #5892D2",
"I. c #6385DB",
"U. c #6B96DE",
"Y. c #6C8ECB",
"T. c #7AABDB",
"R. c #5E87F0",
"E. c #5D8CEC",
"W. c #6585E2",
"Q. c #6A8BEB",
"!. c #6789E6",
"~. c #6A96E9",
"^. c #6C8EF2",
"/. c #6D95F4",
"(. c #7195FC",
"). c #7399E7",
"_. c #7AA7E9",
"`. c #6CA7FA",
"'. c #71A3F5",
"]. c #74ADFD",
"[. c #74A9F6",
"{. c #6CB7FD",
"}. c #75B1FE",
"|. c #79B7FD",
" X c #6DA6EB",
".X c #74C5FF",
"XX c #848483",
"oX c #8C8B8B",
"OX c #888787",
"+X c #949494",
"@X c #9B9B9B",
"#X c #989897",
"$X c #948A8F",
"%X c #A89689",
"&X c #ACA986",
"*X c #B4AF8C",
"=X c #ACACAC",
"-X c #A5A4A3",
";X c #B3B3B3",
":X c #BCBCBC",
">X c #B7B7B8",
",X c #AEAFB0",
"<X c #9FA0A3",
"1X c #CCB18B",
"2X c #EAAD82",
"3X c #EBB68B",
"4X c #FAB585",
"5X c #EFB589",
"6X c #C0BFBE",
"7X c #C59F8F",
"8X c #CFC995",
"9X c #EDC49A",
"0X c #F5C699",
"qX c #EAD898",
"wX c #FEEA92",
"eX c #D2CDAB",
"rX c #F5CDA2",
"tX c #F6D5AA",
"yX c #FADEB4",
"uX c #F7DCB3",
"iX c #E9D0AA",
"pX c #F7E8A5",
"aX c #FCF3AC",
"sX c #FBE0B6",
"dX c #FDE4BA",
"fX c #FFEABE",
"gX c #FEFBBD",
"hX c #FBF5B7",
"jX c #EAE7B0",
"kX c #84AADC",
"lX c #8DB5EE",
"zX c #95ACD4",
"xX c #8DC3F8",
"cX c #C3C2C2",
"vX c #CCCCCC",
"bX c #C6C6C7",
"nX c #D3D3D3",
"mX c #DCDCDC",
"MX c #D9D8D8",
"NX c #CDCFD2",
"BX c #FEECC1",
"VX c #FEFDC4",
"CX c #FEFECB",
"ZX c #FEF3C6",
"AX c #E4E1DC",
"SX c #FFFFD4",
"DX c #FFFFD9",
"FX c #E3E3E3",
"GX c #ECECEC",
"HX c #E7E6E7",
"JX c #FEFCE4",
"KX c #F4F4F4",
"LX c #FFFFFF",
"PX c #F8FAF9",
"IX c #E8F8F5",
"UX c #DEDEDE",
/* pixels */
"LXLXLXLXLXLXLXLXLXLXLXLXLXLXLXLXLXLXLXLXLXLXLXLXLXLXLXLXLXLXLXLXLXLXLXLXLXLXLXLXLXLXLXLXLXLXLXLXLXLXLXLXLXLXLXLXLXLXLXLXLXLXLXLX",
"LXLXLXLXLXLXLXLXLXLXLXLXLXLXLXLXLXLXLXLXLXLXLXLXGXmXPXLXLXLXLXLXLXLXLXLXLXLXLXLXLXLXLXLXLXLXLXLXLXLXLXLXLXLXLXLXLXLXLXLXLXLXLXLX",
"LXLXLXLXLXLXLXLXLXLXLXLXLXLXLXLXLXLXLXLXLXLXPXLXj   cXLXLXLXLXLXLXLXLXLXLXLXLXLXLXLXLXLXLXLXLXLXLXLXLXLXLXLXLXLXLXLXLXLXLXLXLXLX",
"LXLXLXLXLXLXLXLXLXLXLXLXLXLXLXLXLXLXLXLXLXLXPXPXh   cXPXPXLXLXLXLXLXPXLXLXLXLXLXLXLXLXLXLXLXLXLXLXLXLXLXLXLXLXLXLXLXLXLXLXLXLXLX",
"LXLXLXLXLXLXLXLXLXLXLXLXLXLXLXLXLXLXLXLXLXLXLXLXg   vXPXLXLXLXLXLXLXLXLXLXLXLXLXLXLXLXLXLXLXLXLXLXLXLXLXLXLXLXLXLXLXLXLXLXLXLXLX",
"LXLXLXLXLXLXLXLXLXLXLXLXLXLXLXLXLXLXLXLXLXLXnX:Xm w -X6XGXPXPXLXLXPX>XcXPXLXLXLXLXLXLXLXLXLXLXLXLXLXLXLXLXLXLXLXLXLXLXLXLXLXLXLX",
"LXLXLXLXLXLXLXLXLXLXLXLXLXLXLXLXLXLXLXLXPXLXb   *XDX=   mXLXLXLXLXFX  > LXLXLXLXLXLXLXLXLXLXLXLXLXLXLXLXLXLXLXLXLXLXLXLXLXLXLXLX",
"LXLXLXLXLXLXLXLXLXLXLXLXLXLXLXLXLXLXLXLXPXPXn   4.CX,.e @X=X-X=XPXmXX # =X:XPXPXLXLXLXLXLXLXLXLXLXLXLXLXLXLXLXLXLXLXLXLXLXLXLXLX",
"LXLXLXLXLXLXLXLXLXLXLXLXLXLXLXLXLXLXLXLXLXLXm   &XVXVXCX$       LXIXX     > PXLXLXLXLXLXLXLXLXLXLXLXLXLXLXLXLXLXLXLXLXLXLXLXLXLX",
"LXLXLXLXLXLXLXLXLXLXLXLXLXLXLXPXLXLXLXLXeXoXt 9 8XVXhXhX,.c 0 q $X2.  $ x M +X;XPXPXLXLXLXLXLXLXLXLXLXLXLXLXLXLXLXLXLXLXLXLXLXLX",
"LXLXLXLXLXLXLXLXLXLXLXLXLXLXLXLXLXLXPXLXN   G -.h.DXhXhXVXVX=.O.      > DX8X  f LXLXLXLXLXLXLXLXLXLXLXLXLXLXLXLXLXLXLXLXLXLXLXLX",
"LXLXLXLXLXLXLXLXLXLXLXLXLXLXMX@XvXPXKXLXM.  J f.4.1.jXhXhXhXg.d.0 7   > gXeXz M @X6XLXLXLXLXPXPXLXLXLXLXLXLXLXLXLXLXLXLXLXLXLXLX",
"LXLXLXLXLXLXLXLXLXLXLXLXPXLX+X  H.JXPXLXB   1.JXw   8XSXhXVXCXgX=...  > gXgXSX*X  j LXPXLXLXLXLXLXLXLXLXLXLXLXLXLXLXLXLXLXLXLXLX",
"LXLXLXLXLXLXLXLXLXLXLXLXPXLX@X  g OX6XPXB   1.CXe X z ,.h.g.aXjXg.s.  > gXhXVX&X. n PXPXLXvXXXbXLXLXLXLXLXLXLXLXLXLXLXLXLXLXLXLX",
"LXLXLXLXLXLXLXLXLXLXLXLXPXLX+X      OXLXXX  1.SXw       | -.aXCXDXjXX > gXhXVX&X  b PXLXLXoX  B LXPXLXLXLXLXLXLXLXLXLXLXLXLXLXLX",
"LXLXLXLXLXLXLXLXLXLXLXLXPXLX@X  e 1.M N ,   <.SXe   x 1.0 9 c x f.8.X > gXgXgXqX1.,.V ,XPX+XX OXPXPXLXLXLXLXLXLXLXLXLXLXLXLXLXLX",
"LXLXLXLXLXLXLXLXLXLXLXLXPXLX@X  ,.JXk       1.DXg   8XDX$       O.O.  = gXgXVXVXSX4.  B PX+X  OXLXLXLXLXLXLXLXLXLXLXLXLXLXLXLXLX",
"LXLXLXLXLXLXLXLXLXLXLXLXPXLX@X  x VX8X&Xe X } f.7   *XVX*X4.&X4.q 7   > VXpXd.g.CX1.  < j M &X,.j >XLXLXLXLXLXLXLXLXLXLXLXLXLXLX",
"LXLXLXLXLXLXLXLXLXLXLXLXLXLX@X  M VXhXDX~ X F -.2   8XVXVXSXCXhX      > VXwXO.;.SX<.      l JXx   +XLXPXLXLXLXLXLXLXLXLXLXLXLXLX",
"LXLXLXLXLXLXLXLXPXLXnXf B LX#X  ,.VXhXhX8X*Xt - O   *XVXf.&.aXhX8X4.  = VXwX+.d.SX<.X q { s.SXx   @XLXPXLXLXLXLXLXLXLXLXLXLXLXLX",
"LXLXLXLXLXLXLXLXPXLX:X  g LX@X  M SXhXgXgXSXz     X *XVX#.O.aXVXCXjX  = VXwXO.d.SX<.  S -.f.CX~   @XLXPXLXLXLXLXLXLXLXLXLXLXLXLX",
"LXLXLXLXLXLXLXLXLXLXcX  $ < #   0 =.wXVXgXgXqXeXw   8XVXaXpX;.;.hXjX8X8X7.%.O.d.SX<.  9 +.f.SXx   @XLXPXLXLXLXLXLXLXLXLXLXLXLXLX",
"LXLXLXLXLXLXLXLXPXLX:X          9 +.g.CXgXgXgXCXe X *XVXgXgX#.@.aXgXCXpXI %.+.d.SX<.  9 +.f.DX~   @XLXPXPXLXLXLXLXLXLXLXLXLXLXLX",
"LXLXLXLXLXLXLXLXPXLX6X  2 $.9   o % <.DXg.#.h.SX8.$.%.W pXVX&.+.&.;.gXpXK %.O.d.SX1.  O O c DXx   @XLXb # bXLXPXLXLXLXLXLXLXLXLX",
"LXLXLXLXLXLXLXLXLXLXeX  2 =.F o X   ,.SXg.O.g.VXd.+.Q G 9XjX$.$.O.$.hXqXK %.O.;.ZX2.  X   z SXx   oXGXj . cXLXLXLXLXLXLXLXLXLXLX",
"LXLXLXLXLXLXLXLXPXLX6X  2 =.@.+.9   <.CXhXgXf.+.#.#.%.W * X . X   O K P K %.#.*.%.q       z SXx   . X -XGXPXLXLXLXLXLXLXLXLXLXLX",
"LXLXLXLXLXLXLXLXPXLXbX> q *.*.=.F O 5.jXjXVXg.@.#.+.K G * o O $ O * P P K %.$.*.W H & O   z DXx   # # >XLXLXLXLXLXLXLXLXLXLXLXLX",
"LXLXLXLXLXLXLXLXLXLXPXPX=X  8 =.+.#.8   ,.SXhXgXd.O.3   H ` e.y.y.y.y.y.i.9.K ` i.w.p.l   c JXx   +XPXPXLXLXLXLXLXLXLXLXLXLXLXLX",
"LXLXLXLXLXLXLXLXLXLXPXLX=X  7 @.$.#.F % ~ 8XjXVXf.;.3   I 6.e.2Xy.y.y.u.5Xt.P 7.3X2X4X^ * c eXM < ;XLXPXLXLXLXLXLXLXLXLXLXLXLXLX",
"LXLXLXLXLXLXLXLXLXLXLXLX;X  2 W *.+.@.=.9 X 1.CXVXCX,   >.2Xy.i.y.y.t.u.dXtXt.3XdXyXBX9X4X!   OXLXPXLXLXLXLXLXLXLXLXLXLXLXLXLXLX",
"LXLXLXLXLXLXLXLXKXMXnXnX$X  3 I %.+.@.#.F * <.pX8XeXw % q.i.e.e.y.u.u.3XsXtXu.9XdXyXBX3Xp.!   XXLXPXLXLXLXLXLXLXLXLXLXLXLXLXLXLX",
"LXLXLXLXLXLXLXLXvX              9 =.@.+.+.+.o.W 3   H Q i.4X2X4Xy.u.sXsXsXsXsXsXyXyXdX0X4X!   XXLXPXLXLXLXLXLXLXLXLXLXLXLXLXLXLX",
"LXLXLXLXLXLXLXLXmX, <   O - - * 9 | o.#.@.#.G H *   H ' ( / / / t.u.uXuXyXyXyXyXsXuXdX1X` l   OXLXPXLXLXLXLXLXLXLXLXLXLXLXLXLXLX",
"LXLXLXLXLXLXLXLXLXLXcX  2 =.*.%.3   S =.+.-.8       3.4X& X X X y.4XfXBXyXyXdXdXyXuXZXx       B LXPXLXLXLXLXLXLXLXLXLXLXLXLXLXLX",
"LXLXLXLXLXLXLXLXLXPXnXh t { { %.F 2 G $.| G 0 5 &   / 4X= X Z h ^ / 4.&XyXtXrXrXyXuXBX~   > j -XLXLXLXLXLXLXLXLXLXLXLXLXLXLXLXLX",
"LXLXLXLXLXLXLXLXLXLXLXLX,X  8 -.=.=.%.P 3   ^ 0X5   / 4XO   HXKXX     & ZXyXe.3XBXdXSX)   N LXLXLXLXLXLXLXLXLXLXLXLXLXLXLXLXLXLX",
"LXLXLXLXLXLXLXLXLXLXLXPXvXm ! F F F K *.q   ! 4Xr 3 >.2Xr 3 MXHXV C 6 6 1.3.u.2X3Xr.1.e   V LXPXLXLXLXLXLXLXLXLXLXLXLXLXLXLXLXLX",
"LXLXLXLXLXLXLXLXLXLXLXLXLXLX+X      S -.S   ! p.' ` w.2X' ` HXPXLXIX[ [   O 2X6.Q 3       n LXPXLXLXLXLXLXLXLXLXLXLXLXLXLXLXLXLX",
"LXLXLXLXLXLXLXLXLXLXLXLXPXLXbX2.,.H.t F 3   ) sX` L w.2X6.6.iXiXiXeXJ.J.~ 2.rXy.L ( ) 5   V LXPXLXLXLXLXLXLXLXLXLXLXLXLXLXLXLXLX",
"LXLXLXLXLXLXLXLXLXLXLXLXLXPXPXLXJXLXn     X $XLX7XQ e.e.2X2Xe.e.w.2XyXdXBXBXBX3XU 0.JX,.  N LXPXLXLXLXLXLXLXLXLXLXLXLXLXLXLXLXLX",
"LXLXLXLXLXLXLXLXLXLXLXLXLXLXLXPXPXPXeX+X+X+Xj.j.J 3 >.u.y.y.y.u.3XrXyXuXuXuXyXrX2X2X9Xc   N LXPXLXLXLXLXLXLXLXLXLXLXLXLXLXLXLXLX",
"LXLXLXLXLXLXLXLXLXLXLXLXLXLXLXLXLXLXLXLXLXLXj.:.7   / 4Xy.y.y.u.dXdXyXdXdXdXdXdXBXrXp.l   m LXPXLXLXLXLXLXLXLXLXLXLXLXLXLXLXLXLX",
"LXLXLXLXLXLXLXLXLXLXLXLXLXLXLXLXLXLXLXPXPXPXCXaXe X ^ 7.0.y.y.u.uXyXdXtX9.9.q.2XBX4.5 ) =XvXLXLXLXLXLXLXLXLXLXLXLXLXLXLXLXLXLXLX",
"LXLXLXLXLXLXLXLXLXLXLXLXLXLXLXLXLXPXLXLXLXLXLXLXh   H W w.2Xy.2XyXyXdX9XU L U 6.DX2.  ) LXLXLXLXLXLXLXLXLXLXLXLXLXLXLXLXLXLXLXLX",
"LXLXLXLXLXLXLXLXLXLXLXLXLXLXLXLXLXLXLXLX@Xf w i $   ( t.` ` ` ` 2X3XyXuX9X9XrX4.5 N cXmXPXPXLXLXLXLXLXLXLXLXLXLXLXLXLXLXLXLXLXLX",
"LXLXLXLXLXLXLXLXLXLXLXLXLXLXLXLXLXLXLXLXN           / 4X` L L ` e.2XyXdXfXdXVX%X  m LXPXLXLXLXLXLXLXLXLXLXLXLXLXLXLXLXLXLXLXLXLX",
"LXLXLXLXLXLXLXLXLXLXLXLXLXLXLXLX+X> < > $   s A.A.P.7Xp.0.e.W L ` ( > = = = > &   m LXLXLXLXLXLXLXLXLXLXLXLXLXLXLXLXLXLXLXLXLXLX",
"LXLXLXLXLXLXLXLXLXLXLXLXLXLXPXPXB         X v.(.].|.7Xe.2Xe.` ( ` I               m PXKXPXPXLXLXLXLXLXLXLXLXLXLXLXLXLXLXLXLXLXLX",
"LXLXLXLXLXLXLXLXLXLXLXLXPXLX-X# v. X X XL.A.I.D.).}.3.Q e.2Xe.e.e.q.X & 0.q.U )  Xm.$ > ; ) LXLXLXLXLXLXLXLXLXLXLXLXLXLXLXLXLXLX",
"LXLXLXLXLXLXLXLXLXLXLXLXPXLX#X  d lX_.lX).Q.Q.I.'.}._ ( w.i.i.i.4X9.o > 2Xe.Q 3..XC.X +   m GXGXLXLXLXLXLXLXLXLXLXLXLXLXLXLXLXLX",
"LXLXLXLXLXLXLXLXLXLXLXLXLXLX@X  4 T E o.%X`.].}.).W.'.[.( W t.u.e.e.e.9.L ` i.9.K $X{.) Y 4 . oXLXPXLXLXLXLXLXLXLXLXLXLXLXLXLXLX",
"LXLXLXLXLXLXLXLXLXLXLXLXKXKX$XX 4 R E ..*X[.[.|.^.W.'.}._ ( 0.y.e.2X2Xe.L ` 2Xw.U 3.|.$XR 4   B GXPXLXLXLXLXLXLXLXLXLXLXLXLXLXLX",
"LXLXLXLXLXLXLXLXLXLXPXLX;X$ 3 D R ..X.X.o.X.-X].].[.].].[.lX` W 2X2X2Xw.L ` 2X7.Y ^ D.^._.F.Y 4 $ -XLXPXLXLXLXLXLXLXLXLXLXLXLXLX",
"LXLXLXLXLXLXLXLXLXLXLXLX=X  3 R E X.X...X.X.@X`.].}.].}.].]._ ( w.w.w.w.Q ' u.7.Y _ Q./.{.$XR 4   #XLXPXLXLXLXLXLXLXLXLXLXLXLXLX",
"LXLXLXLXLXLXLXLXLXLXPXLX=X  3 Q ' 2X8...E R F.D.'.}.].].].].]._.D R X...X.X.@. .A ^ D./.}.$XR 4   #XLXPXLXLXLXLXLXLXLXLXLXLXLXLX",
"LXLXLXLXLXLXLXLXLXLXPXPX=XX 5 7.9.2X8.@.T ] M.!.).}.}.].].`.].[.L Q  . .X.X...E Y ^ Q.).}.F.] 3   @XLXPXLXLXLXLXLXLXLXLXLXLXLXLX",
"LXLXLXLXLXLXLXLXLXLXLXLX>X  l ZXuXyX3X4Xl X b.(.'.|.}.|.!.I.].}.{._.D T ......E Y ^ D./.xXC.      +XLXPXLXLXLXLXLXLXLXLXLXLXLXLX",
"LXLXLXLXLXLXLXLXLXLXGX:X$X* ! fXuXfX1X/ 5 X a B.I.'.[.[.~.Q.'.'.[._.I L  . ... .Y ^ (.I.G.d   = , ;XLXPXLXLXLXLXLXLXLXLXLXLXLXLX",
"LXLXLXLXLXLXLXLXPXLX:X  3 W 0.BXuXZXl   X X     b.(.}.|.}.}.!.W.].}.{.kXY R O. .A / .Xd   X   ,.LXLXLXLXLXLXLXLXLXLXLXLXLXLXLXLX",
"LXLXLXLXLXLXLXLXLXLX6X  = L 9.tXrXtXl X < h h h v.N.N.V.'.}.!.W./.'.}.kX/ (  .E ^ $X}.k.X X   H.LXPXLXLXLXLXLXLXLXLXLXLXLXLXLXLX",
"LXLXLXLXLXLXLXLXPXLX6X  3 Q ` 2Xe.4Xr   OXLXLXLXf       P.|.U.W.I.!.}.|.{.kXA ( {.'.(.s       XXLXPXLXLXLXLXLXLXLXLXLXLXLXLXLXLX",
"LXLXLXLXLXLXLXLXLXLX6X  5 0.0.2X>.^ c V >XPXPXPX@XV #   K._.U.U.!.!././.].T.^ F.'.A.v.Z 5 *   XXLXPXLXLXLXLXLXLXLXLXLXLXLXLXLXLX",
"LXLXLXLXLXLXLXLXPXLX6X  g SX9Xp.l   +XLXLXLXLXLXLXLXg   H.T.kXT.!.W.W.!.|.|.}.(.^.k.  4 7.H   XXLXPXLXLXLXLXLXLXLXLXLXLXLXLXLXLX",
"LXLXLXLXLXLXLXLXPXLX6X  e BXrXrX!   +XKXPXLXLXPXPXKXf   G.P.K.K.U.U.U.~.P.E.P.P.'.v.X 5 ' 4 X XXPXPXLXLXLXLXLXLXLXLXLXLXLXLXLXLX",
"LXLXLXLXLXLXLXLXLXLX6X  e fXtXBX~   <XLXLXLXLXLXLXLX5   z.x.x.x. XT.T.T.x.x.x.G.xXv X 7 7.r o F.LXLXLXLXLXLXLXLXLXLXLXLXLXLXLXLX",
"LXLXLXLXLXLXLXLXPXLX6X  k JXAXJX)   f m >XPXPXPX+Xm v.l.L.E.L.P.K.K.K.K.P.P.P.P.G.c.u , 3 k F.M b eXLXPXLXLXLXLXLXLXLXLXLXLXLXLX",
"LXLXLXLXLXLXLXLXPXLXcX  h LXGXLXB       XXLXLXLXg   B.(.].}.E.E.x.x.x.x.T.T.xXP.x.z.l.y   h PXj   +XLXLXLXLXLXLXLXLXLXLXLXLXLXLX",
"LXLXLXLXLXLXLXLXLXLX:X  i eX>XcX+XN < X > h h h >   V.[.`.].!.W.Z.L. X~.U.G., p z.N.Z.p   j mXb   @XLXPXLXLXLXLXLXLXLXLXLXLXLXLX",
"LXLXLXLXLXLXLXLXLXLX6X  , =X@X+X<X;Xf               K.|.].].!.W.W.!.}.[.^.N.  @ k.C.(.s   j GXb   @XLXLXLXLXLXLXLXLXLXLXLXLXLXLX",
"LXLXLXLXLXLXLXLXPXLX:X  $ > N GXMXFX<XV N XX< X s B.~.}.~.Q.'.[.`.[.}.'.Q.B.  y Z.Z.^.a   # , b ,Xm , 6XLXLXLXLXLXLXLXLXLXLXLXLX",
"LXLXLXLXLXLXLXLXPXLX:X      j LXGXLXbX@X-X,Xf   N.(.[.].!.D.].].}.}.}./.^.N.  u /.W.^.s       b KXg   =XLXLXLXLXLXLXLXLXLXLXLXLX",
"LXLXLXLXLXLXLXLXLXLXKXnX+X  m LXGXPX:X+X#X-Xi   V.[.[.].[.].].].}.`.^.A.: 1 p v.!.W.Q.N.p u   m FXh   =XLXPXLXLXLXLXLXLXLXLXLXLX",
"LXLXLXLXLXLXLXLXLXLXLXLX>X  m LXGXPX:X+X@X-Xi   V.|.].].}.}.}.].}.`.^.B.  @ k.C.Q.I.Q.B.k.u   b HXg   =XLXPXLXLXLXLXLXLXLXLXLXLX",
"LXLXLXLXLXLXLXLXLXLXPXLX=X  g :X;X=XvXGX) > i p K.|.].].].].].].|.~.1 ;   1 Z.Z.W.W.W.Z.I.s   j cXg   ,XLXLXLXLXLXLXLXLXLXLXLXLX",
"LXLXLXLXLXLXLXLXLXLXPXLX=X  g -X@X+XbXLXN   u l.Y.|.}.}.].}.].].}.U.      1 Q.L.W.W.W.W.(.k.  g >Xf   ,XLXPXLXLXLXLXLXLXLXLXLXLX",
"LXLXLXLXLXLXLXLXLXLXLXLXKXmXOX$ $ $ # # +   u s I.|.].].].].}.]./.Z.      X @ p Q.W.W.I.^.k.  @ $ OXmXKXLXLXLXLXLXLXLXLXLXLXLXLX",
"LXLXLXLXLXLXLXLXLXLXLXLXLXLX@X. . . .   X   i k.I.}.].].}.].[.`.I.B.          y ^.I.W.I.^.k.  X   @XLXLXLXLXLXLXLXLXLXLXLXLXLXLX",
"LXLXLXLXLXLXLXLXLXLXLXLXLXLXPXGXGXGXGXPXN   l.Q.I.W.[.}.}.].b.s + +           u ^.W.Q.B.n.u       +XLXLXLXLXLXLXLXLXLXLXLXLXLXLX",
"LXLXLXLXLXLXLXLXLXLXLXLXLXLXLXLXLXLXGXHXB @ b.^.I.W.(.].'. Xb.s X       . +   y I.Z.D.N.s u @ +   +XLXPXLXLXLXLXLXLXLXLXLXLXLXLX",
"LXLXLXLXLXLXLXLXLXLXLXLXLXLXLXPXPXPXN X v.|.~.I.W.!.W.!.v.s I.I.      + k.u   : v.k.k.k.s N.^.a   @XLXPXLXLXLXLXLXLXLXLXLXLXLXLX",
"LXLXLXLXLXLXLXLXLXLXLXLXLXLXLXLXPXLXV   v.xX~.W.!.W.W.W.C.l.B.B., >   @ b.p + 1 p s s k.s N.(.p   #XLXPXLXLXLXLXLXLXLXLXLXLXLXLX",
"LXLXLXLXLXLXLXLXLXLXLXLXLXLXLXLXLXLXV   v.|.~.L.W.W.W.W.W.W.+ . PXHX  + (.D.k.u   : l.s p C.(.s   @XLXLXLXLXLXLXLXLXLXLXLXLXLXLX",
"LXLXLXLXLXLXLXLXLXLXLXLXLXLXLXLXPXLXN   v.xX)./.Q.!.W.W.W.I.+ . KXGXf g B.b.k.p : u k.v.b.B.^.s   @XLXPXLXLXLXLXLXLXLXLXLXLXLXLX",
"LXLXLXLXLXLXLXLXLXLXLXLXLXLXLXLXPXLXN   b eXlXlXQ.Z.Q.^.^.^.    GXLXLXMX  + k.s s s p N.Q.!.(.p   +XLXPXLXLXLXLXLXLXLXLXLXLXLXLX",
"LXLXLXLXLXLXLXLXLXLXLXLXLXLXLXLXPXPXN   m cXzXxXlXlXB.b.b.b.j j KXLXPXNXX ; M.m.N.M.M.H.lXS.C.v j >XLXLXLXLXLXLXLXLXLXLXLXLXLXLX",
"LXLXLXLXLXLXLXLXLXLXLXLXLXLXLXLXLXLXN   j 6XMXPXJXLX<       GXLXLXPXLXNX  # =X>XMXnXvXUXPX%X  oXLXLXLXLXLXLXLXLXLXLXLXLXLXLXLXLX",
"LXLXLXLXLXLXLXLXLXLXLXLXLXLXLXLXbX+XV h +XMXFXKXGXKXf X j N GXPXLXLXLXFXn n j N >X>XbXnXLXoX  XXPXPXLXLXLXLXLXLXLXLXLXLXLXLXLXLX",
"LXLXLXLXLXLXLXLXLXLXLXLXLXLXPXLXB   n NXmXPXKXGXPXLX<   UXLXLXLXLXLXLXLXLXvX  > @X=XvXMXPX$X  OXLXPXLXLXLXLXLXLXLXLXLXLXLXLXLXLX",
"LXLXLXLXLXLXLXLXLXLXLXLXLXLXPXPXXXX n :XvXKXGXKX<X) XXXXFXPXLXLXLXLXLXLXPX6XX , <X=XbXMXLXoXX XXPXPXPXLXLXLXLXLXLXLXLXLXLXLXLXLX",
"LXLXLXLXLXLXLXLXLXLXLXLXLXLXLXLXOX  V vXmXLXPXLXi   vXLXLXLXLXLXLXLXLXPXLX:X  > =X;XbXMXLXOX  OXLXLXLXLXLXLXLXLXLXLXLXLXLXLXLXLX",
"LXLXLXLXLXLXLXLXLXLXLXLXLXLX6Xm n B m m N OXN m $X@XFXPXLXLXLXLXLXLXLXLXLXHX@XB f N vXvXFX-Xb b m m m vXPXPXLXLXLXLXLXLXLXLXLXLX",
"LXLXLXLXLXLXLXLXLXLXLXLXPXLX+X  j FXb $ # #     ;XLXLXLXLXLXLXLXLXLXLXLXLXLXLX>X  h HXvXbX;X=Xg       =XLXLXLXLXLXLXLXLXLXLXLXLX",
"LXLXLXLXLXLXLXLXLXLXLXLXPXPX@X  j bX-X@X@X=Xg   =XPXPXLXLXLXLXLXLXLXLXLXLXPXLX=X  > j +XnX6X>X~ 7 3 - z N MXPXLXLXLXLXLXLXLXLXLX",
"LXLXLXLXLXLXLXLXLXLXLXLXLXPX-XX C bXFXLXLXLXm   ,XLXLXLXLXLXLXLXLXLXLXLXLXPXLX=X      h MXbXNX3.F 9 8 o   cXLXLXLXLXLXLXLXLXLXLX",
"LXLXLXLXLXLXLXLXLXLXLXLXvXj e 8 { s.>.>.1XLXb   ;XLXLXLXLXLXLXLXLXLXLXLXLXPXLX,X  > m +XvXbXNX5.8 9 9 t t C j UXLXLXLXLXLXLXLXLX",
"LXLXLXLXLXLXLXLXLXLXPXLX-X  % J { | G S 4.LXb   ,XLXPXLXLXLXLXLXLXLXLXLXLXLXLX=X  f >X:XnXNXmX2.2 F { >.r.%   vXLXLXLXLXLXLXLXLX",
"LXLXLXLXLXLXLXLXLXLXLXLX=X  7 | s.pXs.{ 4.nXh   ,XLXPXLXLXLXLXLXLXLXLXLXLXLXLXHX>XXX> < , , , = o % % - = o   nXLXPXLXLXLXLXLXLX",
"LXLXLXLXLXLXLXLXLXLXPXLX=X  7 *.h.JXj.| 4.vXg   ,XLXLXLXLXLXLXLXLXLXLXLXLXLXLXLXLX@X                          vXLXLXLXLXLXLXLXLX",
"LXLXLXLXLXLXLXLXLXLXPXLX=X  . % = = & % - > XXNXGXLXLXLXLXLXLXLXLXLXLXLXLXLXLXLXPXGXvXnXvXnXNXNXvXNXvXvXNXvXvXPXLXLXLXLXLXLXLXLX",
"LXLXLXLXLXLXLXLXLXLXLXLX=X  X           X X @XPXLXLXLXLXLXLXLXLXLXLXLXLXLXLXLXLXLXLXLXLXLXLXLXLXLXLXLXLXLXLXLXLXLXLXLXLXLXLXLXLX",
"LXLXLXLXLXLXLXLXLXLXLXLXKXUXFXAXAXUXFXFXFXFXGXLXLXLXLXLXLXLXLXLXLXLXLXLXLXLXLXLXLXLXLXPXLXPXLXLXLXPXLXLXPXLXPXLXLXLXLXLXLXLXLXLX",
"LXLXLXLXLXLXLXLXLXLXLXLXPXLXLXLXLXLXLXLXLXLXLXLXLXLXLXLXLXLXLXLXLXLXLXLXLXLXLXLXLXLXLXLXLXLXLXLXLXLXLXLXLXLXLXLXLXLXLXLXLXLXLXLX"
};
