/* XPM */
static char *result[] = {
/* columns rows colors chars-per-pixel */
"64 64 100 2 ",
"   c black",
".  c #171C2D",
"X  c #212A42",
"o  c #212A43",
"O  c #222A43",
"+  c #222B44",
"@  c #222B45",
"#  c #232C45",
"$  c #232C46",
"%  c #232D47",
"&  c #242D47",
"*  c #242D48",
"=  c #242E48",
"-  c #242E49",
";  c #252E49",
":  c #252F4A",
">  c #252F4B",
",  c #26304B",
"<  c #26304C",
"1  c #26314D",
"2  c #27314D",
"3  c #27314E",
"4  c #27314F",
"5  c #28324F",
"6  c #0D111B",
"7  c #293352",
"8  c #293452",
"9  c #293453",
"0  c #2A3453",
"q  c #2A3554",
"w  c #2A3555",
"e  c #2B3655",
"r  c #2B3656",
"t  c #2B3757",
"y  c #2C3757",
"u  c #2C3758",
"i  c #2C3858",
"p  c #2C3859",
"a  c #2D3859",
"s  c #2D395A",
"d  c #2D395B",
"f  c #2E3A5B",
"g  c #2E3A5C",
"h  c #2E3B5D",
"j  c #2F3B5D",
"k  c #2F3B5E",
"l  c #0D111A",
"z  c #415282",
"x  c #181F30",
"c  c #3C4C78",
"v  c #141928",
"b  c #1A2134",
"n  c #293351",
"m  c #1C2439",
"M  c #141A29",
"N  c #36446C",
"B  c #344269",
"V  c #35436A",
"C  c #354269",
"Z  c #324065",
"A  c #334167",
"S  c #334066",
"D  c #344268",
"F  c #34436A",
"G  c #3A4974",
"H  c #3E4E7C",
"J  c #3E4E7B",
"K  c #3C4C79",
"L  c #3B4B76",
"P  c #3B4975",
"I  c #3A4A76",
"U  c #394872",
"Y  c #131825",
"T  c #161C2C",
"R  c #202941",
"E  c #1E263C",
"W  c #415281",
"Q  c #405180",
"!  c #40507F",
"~  c #252E4A",
"^  c #06080D",
"/  c #2A3655",
"(  c #070A0F",
")  c #1E263D",
"_  c #0B0D16",
"`  c #0E121D",
"'  c #151A2A",
"]  c #181F31",
"[  c #1B2337",
"{  c #0C1019",
"}  c #212B43",
"|  c #242E4A",
" . c #28314F",
".. c #344167",
"X. c #1F263D",
"o. c #030406",
"O. c #040508",
"+. c #283250",
"@. c #3C4B77",
"#. c #1F273E",
/* pixels */
"                                                                                                                                ",
"                                                                                                                                ",
"                                                                                                                                ",
"  . X X o O + + @ # $ $ % & * = - ; : : : > , < < 1 2 3 4 5 6       , 7 8 9 0 q q w e r r t y u i p a a s s d f g g h j k k l   ",
"  a z z z z z z z z z z z z z z z z z z z z z z z z z z z z x       c z z z z z z z z z z z z z z z z z z z z z z z z z z z v   ",
"  a z z z z z z z z z z z z z z z z z z z z z z z z z z z z x       c z z z z z z z z z z z z z z z z z z z z z z z z z z z v   ",
"  a z z z z z z z z z z z z z z z z z z z z z z z z z z z z x       c z z z z z z z z z z z z z z z z z z z z z z z z z z z v   ",
"  a z z z z z z z z z z z z z z z z z z z z z z z z z z z z x       c z z z z z z z z z z z z z z z z z z z z z z z z z z z v   ",
"  a z z z z z z z z z z z z z z z z z z z z z z z z z z z z x       c z z z z z z z z z z z z z z z z z z z z z z z z z z z v   ",
"  a z z z z z z z z z z z z z z z z z z z z z z z z z z z z x       c z z z z z z z z z z z z z z z z z z z z z z z z z z z v   ",
"  a z z z z z z z z z z z z z z z z z z z z z z z z z z z z x       c z z z z z z z z z z z z z z z z z z z z z z z z z z z v   ",
"  a z z z z z z z z z z z z z z z z z z z z z z z z z z z z x       c z z z z z z z z z z z z z z z z z z z z z z z z z z z v   ",
"  e z z z z z z z z z z z z z z z z z z z z z z z z z z z z b       c z z z z z z z z z z z z z z z z z z z z z z z z z z z v   ",
"  n z z z z z z z z z z z z z z z z z z z z z z z z z z z z m       c z z z z z z z z z z z z z z z z z z z z z z z z z z z v   ",
"  n z z z z z z z z z z z z z z z z z z z z z z z z z z z z m       c z z z z z z z z z z z z z z z z z z z z z z z z z z z v   ",
"  n z z z z z z z z z z z z z z z z z z z z z z z z z z z z M       c z z z z z z z z z z z z z z z z z z z z z z z z z z z v   ",
"  $ N B V C Z Z B C A S B C A D A F G c H J K L P I c U V >           c c c c c c c c c c c c c c c c c c c c c c c c c c c Y   ",
"                                                                                                                                ",
"                                                                                                                                ",
"  > c c c c c c c c c c c c c c c c c c c c c c c c c c c c c c c c c c c c c c c c c c c         c c c c c c z z z z z z z T   ",
"  n z z z z z z z z z z z z z z z z z z z z z z z z z z z z z z z z z z z z z z z z z z z c     c z z z z z z z z z z z z z x   ",
"  n z z z z z z z z z z z z z z z z z z z z z z z z z z z z z z z z z z z z z z z z z z z c     c z z z z z z z z z z z z z x   ",
"  n z z z z z z z z z z z z z z z z z z z z z z z z z z z z z z z z z z z z z z z z z z z c     c z z z z z z z z z z z z z x   ",
"  1 z z z z z z z z z z z z z z z z z z z z z z z z z z z z z z z z z z z z z z z z z z z c     c z z z z z z z z z z z z z x   ",
"  - z z z z z z z z z z z z z z z z z z z z z z z z z z z z z z z z z z z z z z z z z z z c     c z z z z z z z z z z z z z x   ",
"  - z z z z z z z z z z z z z z z z z z z z z z z z z z z z z z z z z z z z z z z z z z z c     c z z z z z z z z z z z z z x   ",
"  - z z z z z z z z z z z z z z z z z z z z z z z z z z z z z z z z z z z z z z z z z z z c     c z z z z z z z z z z z z z x   ",
"  - z z z z z z z z z z z z z z z z z z z z z z z z z z z z z z z z z z z z z z z z z z z c     c z z z z z z z z z z z z z x   ",
"  - z z z z z z z z z z z z z z z z z z z z z z z z z z z z z z z z z z z z z z z z z z z c     c z z z z z z z z z z z z z x   ",
"  - z z z z z z z z z z z z z z z z z z z z z z z z z z z z z z z z z z z z z z z z z z z c     c z z z z z z z z z z z z z x   ",
"  - z z z z z z z z z z z z z z z z z z z z z z z z z z z z z z z z z z z z z z z z z z z c     c z z z z z z z z z z z z z x   ",
"  - z z z z z z z z z z z z z z z z z z z z z z z z z z z z z z z z z z z z z z z z z z z c     c z z z z z z z z z z z z z x   ",
"  - z z z z z z z z z z z z z z z z z z z z z z z z z z z z z z z z z z z z z z z z z z z c     c z z z z z z z z z z z z z x   ",
"  - z z z z z z z z z z z z z z z z z z z z z z z z z z z z z z z z z z z z z z z z z z z c     c z z z z z z z z z z z z z x   ",
"  @ z z z z z z z z z z z z z z z z z z z z z z z z z z z z z z z z z z z z z z z z z z z c     c z z z z z z z z z z z z z x   ",
"  R z z z z z z z z z z z z z z z z z z z z z z z z z z z z z z z z z z z z z z z z z z z c     c z z z z z z z z z z z z z b   ",
"  R z z z z z z z z z z z z z z z z z z z z z z z z z z z z z z z z z z z z z z z z z z z c     c z z z z z z z z z z z z z m   ",
"  R z z z z z z z z z z z z z z z z z z z z z z z z z z z z z z z z z z z z z z z z z z J       c z z z z z z z z z z z z z m   ",
"  E c c c c c c c c c c c c c c c c c c c c c c c c c c c c c c c c c c c c c c c c c c           c c c c c c z z z z z z z m   ",
"                                                                                                                                ",
"                                                                                                                                ",
"                                                                                                                                ",
"  R z z z z z z z z W Q ! z z z z z z z z z z z z z ~ ^ / z z z z z z z z z z z z z z z z z z z z z z z z z z z z z z z z z m   ",
"  R z z z z z z z z z z z z z z z z z z z z z z z z     ( z z z z z z z z z z z z z z z z z z z z z z z z z z z z z z z z z m   ",
"  R z z z z z z z z z z z z z z z z z z z z z z z z     ( z z z z z z z z z z z z z z z z z z z z z z z z z z z z z z z z z m   ",
"  ) z z z z z z z z z z z z z z z z z z z z z z z z     ( z z z z z z z z z z z z z z z z z z z z z z z z z z z z z z z z z m   ",
"  m z z z z z z z z z z z z z z z z z z z z z z z z     _ z z z z z z z z z z z z z z z z z z z z z z z z z z z z z z z z z m   ",
"  m z z z z z z z z z z z z z z z z z z z z z z z z     ` z z z z z z z z z z z z z z z z z z z z z z z z z z z z z z z z z m   ",
"  m z z z z z z z z z z z z z z z z z z z z z z z z     ` z z z z z z z z z z z z z z z z z z z z z z z z z z z z z z z z z m   ",
"  m z z z z z z z z z z z z z z z z z z z z z z z z     ` z z z z z z z z z z z z z z z z z z z z z z z z z z z z z z z z z m   ",
"  m z z z z z z z z z z z z z z z z z z z z z z z z     ' z z z z z z z z z z z z z z z z z z z z z z z z z z z z z z z z z m   ",
"  m z z z z z z z z z z z z z z z z z z z z z z z z     ] z z z z z z z z z z z z z z z z z z z z z z z z z z z z z z z z z )   ",
"  m z z z z z z z z z z z z z z z z z z z z z z z z     ] z z z z z z z z z z z z z z z z z z z z z z z z z z z z z z z z z R   ",
"  m z z z z z z z z z z z z z z z z z z z z z z z z     ] z z z z z z z z z z z z z z z z z z z z z z z z z z z z z z z z z R   ",
"  m z z z z z z z z z z z z z z z z z z z z z z z z     ] z z z z z z z z z z z z z z z z z z z z z z z z z z z z z z z z z R   ",
"  m z z z z z z z z z z z z z z z z z z z z z z z z     [ z z z z z z z z z z z z z z z z z z z z z z z z z z z z z z z z z R   ",
"  m z z z z z z z z z z z z z z z z z z z z z z z z     o z z z z z z z z z z z z z z z z z z z z z z z z z z z z z z z z z R   ",
"  b z z z z z z z z z z z z z z z z z z z z z z z z     o z z z z z z z z z z z z z z z z z z z z z z z z z z z z z z z z z R   ",
"  x z z z z z z z z z z z z z z z z z z z z z z z z     o z z z z z z z z z z z z z z z z z z z z z z z z z z z z z z z z z R   ",
"  x z z z z z z z z z z z z z z z z z z z z z z z z     ~ z z z z z z z z z z z z z z z z z z z z z z z z z z z z z z z z z R   ",
"  { } } } } | |  .~ 3 8 9 ..u 9 / / e e e } | | ~ X.o.o.O.+.+.+./ / e e e A A A A N N N N N N U U U U U U @.@.@.@.@.@.H H H #.  ",
"                                                                                                                                ",
"                                                                                                                                ",
"                                                                                                                                "
};