/* XPM */
static char *_0cb0913d7dc4b67916b68f183e3811di9NTKSlMpuOr1UXU[] = {
/* columns rows colors chars-per-pixel */
"64 64 100 2 ",
"   c black",
".  c #010000",
"X  c #000100",
"o  c #010100",
"O  c #000001",
"+  c #010001",
"@  c #000101",
"#  c #010101",
"$  c #020202",
"%  c #030202",
"&  c #020302",
"*  c #030302",
"=  c #020203",
"-  c gray1",
";  c #040404",
":  c gray2",
">  c #060606",
",  c #070707",
"<  c gray3",
"1  c #0B0B0B",
"2  c #131313",
"3  c gray9",
"4  c #222222",
"5  c #282828",
"6  c gray16",
"7  c gray17",
"8  c #2C2C2C",
"9  c #2D2D2D",
"0  c gray18",
"q  c gray19",
"w  c gray21",
"e  c gray22",
"r  c #393939",
"t  c gray27",
"y  c gray28",
"u  c #494949",
"i  c #4B4B4B",
"p  c #4C4C4C",
"a  c gray31",
"s  c gray38",
"d  c #626262",
"f  c #646464",
"g  c gray40",
"h  c DimGray",
"j  c #6C6C6C",
"k  c gray44",
"l  c #717071",
"z  c #727272",
"x  c gray45",
"c  c #7C7C7C",
"v  c gray49",
"b  c #838383",
"n  c #A0A0A0",
"m  c gray63",
"M  c gray64",
"N  c #A4A4A4",
"B  c #A5A5A5",
"V  c gray65",
"C  c #A9A9A9",
"Z  c #AAAAAA",
"A  c #ABABAA",
"S  c gray67",
"D  c #ACACAC",
"F  c gray68",
"G  c #AEADAE",
"H  c #AFAFAF",
"J  c #D2D2D2",
"K  c LightGray",
"L  c gray83",
"P  c #D5D4D5",
"I  c #D4D5D5",
"U  c #D7D6D6",
"Y  c gray85",
"T  c gainsboro",
"R  c gray87",
"E  c gray88",
"W  c #E4E4E4",
"Q  c #E7E7E7",
"!  c #F1F1F1",
"~  c #F3F3F3",
"^  c #F4F4F4",
"/  c gray97",
"(  c #F8F8F8",
")  c #FAF9FA",
"_  c gray98",
"`  c #FBFBFB",
"'  c #FCFBFC",
"]  c #FCFBFD",
"[  c gray99",
"{  c #FDFCFD",
"}  c #FCFDFD",
"|  c #FDFDFD",
" . c #FEFEFE",
".. c #FFFEFE",
"X. c #FEFFFE",
"o. c #FFFFFE",
"O. c #FEFEFF",
"+. c #FFFEFF",
"@. c #FEFFFF",
"#. c white",
/* pixels */
"#.#.#.#.#.#.#.#.#.#.#.#.#.#.#.#.#.#.#.#.#.#.#.#.#.#.#.#.#.#.#.#.#.#.#.#.#.#.#.#.#.#.#.#.#.#.#.#.#.#.#.#.#.#.#.#.#.#.#.#.#.#.#.#.",
"#.#.#.#.#.#.#.#.#.#.#.#.#.#.#.#.#.#.#.#.#.#.#.#.#.#.#.#.#.#.#.#.#.#.#.#.#.#.#.#.#.#.#.#.#.#.#.#.#.#.#.#.#.#.#.#.#.#.#.#.#.#.#.#.",
"#.#.#.#.#.#.#.#.#.#.#.#.#.#.#.#.#.#.#.#.#.#.#.#.#.#.#.#.#.#.#.#.#.#.#.#.#.#.#.#.#.#.#.#.#.#.#.#.#.#.#.#.#.#.#.#.#.#.#.#.#.#.#.#.",
"#.#.#.#.#.#.#.#.#.#.#.#.#.#.#.#.#.#.#.#.#.#.#.#.#.#.#.#.#.#.#.#.#.#.#.#.#.#.#.#.#.#.#.#.#.#.#.#.#.#.#.#.#.#.#.#.#.#.#.#.#.#.#.#.",
"#.#.#.#.#.#.#.#.#.#.#.#.#.#.#.#.#.#.#.#.#.#.#.#.#.#.#.#.#.#.#.#.#.#.#.#.#.#.#.#.#.#.#.#.#.#.#.#.#.#.#.#.#.#.#.#.#.#.#.#.#.#.#.#.",
"#.#.#.#.#.#.#.#.#.#.#.#.#.#.#.#.#.#.#.#.#.#.#.#.#.#.#.#.#.#.#.#.#.#.#.#.#.#.#.#.#.#.#.#.#.#.#.#.#.#.#.#.#.#.#.#.#.#.#.#.#.#.#.#.",
"#.#.#.#.#.#.#.#.#.#.#.#.#.#.#.#.#.#.#.#.#.#.#.#.#.#.#.#.#.#.#.#.#.#.#.#.#.#.#.#.#.#.#.#.#.#.#.#.#.#.#.#.#.#.#.#.#.#.#.#.#.#.#.#.",
"#.#.#.#.#.#.#.#.#.#.#.#.#.#.#.#.#.#.#.#.#.#.#.#.#.#.#.#.#.#.#.#.#.#.#.#.#.#.#.#.#.#.#.#.#.#.#.#.#.#.#.#.#.#.#.#.#.#.#.#.#.#.#.#.",
"#.#.#.#.#.#.#.#.#.#.#.#.#.#.#.#.#.#.#.#.#.#.#.#.#.#.#.#.#.#.#.#.#.#.#.#.#.#.#.#.#.#.#.#.#.#.#.#.#.#.#.#.#.#.#.#.#.#.#.#.#.#.#.#.",
"#.#.#.#.#.#.#.#.#.#.#.#.#.#.#.#.#.#.#.#.#.#.#.#.#.#.#.#.#.#.#.#.#.#.#.#.#.#.#.#.#.#.#.#.#.#.#.#.#.#.` #.#.#.#.#.#.#.#.#.#.#.#.#.",
"#.#.#.#.#.#.#.#.#.#.#.#.#.#.#.#.#.#.#.#.#.#.#.A                   > c #.#.#.#.#.                    !                       #.#.",
"#.#.#.#.#.#.#.#.#.#.#.#.#.#.#.#.#.#.#.#.#.#.A                   > c #.#.#.#.#.#.                  E #.                      #.#.",
"#.#.#.#.#.#.#.#.#.#.#.#.#.#.#.#.#.#.#.#.#.G                     b #.#.#.#.#.#.#.                ` #.#.                      #.#.",
"#.#.#.#.#.#.#.#.#.#.#.#.#.#.#.#.#.#.#.#.m <                   x #.#.#.#.#.#.#.#.              ! #.#.#.                      #.#.",
"#.#.#.#.#.#.#.#.#.#.#.#.#.#.#.#.#.#.#.A                     x #.#.#.#.#.#.#.#.#.            W ` #.#.#.                      #.#.",
"#.#.#.#.#.#.#.#.#.#.#.#.#.#.#.#.#.#.A                     s ` #.#.#.#.#.#.#.#.#.          W ] #.#.#.#.                      #.#.",
"#.#.#.#.#.#.#.#.#.#.#.#.#.#.#.#.#.A                     x #.#.#.#.#.#.#.#.#.#.#.        T #.#.#.#.#.#.                      #.#.",
"#.#.#.#.#.#.#.#.#.#.#.#.#.#.#.#.A                     g #.#.#.#.#.#.#.#.#.#.#.#.      E #.#.#.#.#.#.#.                      #.#.",
"#.#.#.#.#.#.#.#.#.#.#.#.#.#.#.V                     x #.#.#.#.#.#.#.#.#.#.#.#.#.    T #.#.#.#.#.#.#.#.                      #.#.",
"#.#.#.#.#.#.#.#.#.#.#.#.#.#.A                     y #.#.#.#.#.#.#.#.#.#.#.#.#.#.  W #.#.#.#.#.#.#.#.#.                      #.#.",
"#.#.#.#.#.#.#.#.#.#.#.#.#.V                     j #.#.#.#.#.#.#.#.#.#.#.#.#.#.#.T #.#.#.#.#.#.#.#.#.#.                      #.#.",
"#.#.#.#.#.#.#.#.#.#.#.#.G >                   y #.#.#.#.#.#.#.#.#.#.#.#.#.#.#.#./ #.#.#.#.#.#.#.#.#.                      U #.#.",
"#.#.#.#.#.#.#.#.#.#.#.A                     g #.#.#.#.#.#.#.#.#.#.#.#.#.#.#.#.#.#.#.#.#.#.#.#.#.#.0                     K #.#.#.",
"#.#.#.#.#.#.#.#.#.#.A                     p ` #.#.#.#.#.#.#.#.#.#.#.#.#.#.#.#.#.#.#.#.#.#.#.#.#.                      K #.#.#.#.",
"#.#.#.#.#.#.#.#.#.m                     h #.#.#.#.#.#.#.#.#.#.#.#.#.#.#.#.#.#.#.#.#.#.#.#.#.#.7                   > K #.#.#.#.#.",
"#.#.#.#.#.#.#.#.G                   > u #.#.#.#.#.#.#.#.#.#.#.#.#.#.#.#.#.#.#.#.#.#.#.#.#.#.>                     Y #.#.#.#.#.#.",
"#.#.#.#.#.#.#.m                   > s #.#.#.#.#.#.#.#.#.#.#.#.#.#.#.#.#.#.#.#.#.#.#.#.#.#.0                     T #.#.#.#.#.#.#.",
"#.#.#.#.#.#.G                     u #.#.#.#.#.#.#.#.#.#.#.#.#.#.#.#.#.#.#.#.#.#.#.#.#.] <                     U #.#.#.#.#.#.#.#.",
"#.#.#.#.#.V                     s #.#.#.#.#.#.#.#.#.#.#.#.#.#.#.#.#.#.#.#.#.#.#.#.#.#.0                     U #.#.#.#.#.#.#.#.#.",
"#.#.#.#.G                     p #.#.#.#.#.#.#.#.#.#.#.#.#.#.#.#.#.#.#.#.#.#.#.#.#.#.2                     U #.#.#.#.#.#.#.#.#.#.",
"#.#.#.m >                   s #.#.#.#.#.#.#.#.#.#.#.#.#.#.#.#.#.#.#.#.#.#.#.#.#.#.7                     T #.#.#.#.#.#.#.#.#.#.#.",
"#.#.G                     u ` #.#.#.#.#.#.#.#.#.#.#.#.#.#.#.#.#.#.#.#.#.#.#.#.#.3                   > T #.#.#.#.#.#.#.#.#.#.#.#.",
"#.#.                      >                                           #.#.#.#.#.                      #.#.#.#.#.#.#.#.#.#.r / #.",
"#.#.                                                                  #.#.#.#.#.                      #.#.#.#.#.#.#.#.#.r   #.#.",
"#.#.                                                                  #.#.#.#.#.                      #.#.#.#.#.#.#.#.r     #.#.",
"#.#.                                                                  #.#.#.#.#.                      #.#.#.#.#.#.` r       #.#.",
"#.#.                                                                  #.#.#.#.#.                      #.#.#.#.#.#.r         #.#.",
"#.#.                                                                  #.#.#.#.#.                      #.#.#.#.#.7           #.#.",
"#.#.                                                                  #.#.#.#.#.                      #.#.#.#.w             #.#.",
"#.#.                                                                  #.#.#.#.#.                      #.#.#.q               #.#.",
"#.#.                                                                  #.#.#.#.#.                      #.#.0 >               #.#.",
"#.#.#.#.#.#.#.#.#.#.#.#.#.#.#.#.#.#.#.#.#.#.#.#.                      #.#.#.#.#.                      ` 7                   #.#.",
"#.#.#.#.#.#.#.#.#.#.#.#.#.#.#.#.#.#.#.#.#.#.#.#.                      #.#.#.#.#.>                     4                     #.#.",
"#.#.#.#.#.#.#.#.#.#.#.#.#.#.#.#.#.#.#.#.#.#.#.#.                      #.#.#.#.#.#.#.#.#.#.#.#.#.#.#.#.#.#.#.#.#.#.#.#.#.#.#.#.#.",
"#.#.#.#.#.#.#.#.#.#.#.#.#.#.#.#.#.#.#.#.#.#.#.#.                      #.#.#.#.#.#.#.#.#.#.#.#.#.#.#.#.#.#.#.#.#.#.#.#.#.#.#.#.#.",
"#.#.#.#.#.#.#.#.#.#.#.#.#.#.#.#.#.#.#.#.#.#.#.#.                      #.#.#.#.#.#.#.#.#.#.#.#.#.#.#.#.#.#.#.#.#.#.#.#.#.#.#.#.#.",
"#.#.#.#.#.#.#.#.#.#.#.#.#.#.#.#.#.#.#.#.#.#.#.#.                      #.#.#.#.#.#.#.#.#.#.#.#.#.#.#.#.#.#.#.#.#.#.#.#.#.#.#.#.#.",
"#.#.#.#.#.#.#.#.#.#.#.#.#.#.#.#.#.#.#.#.#.#.#.#.                      #.#.#.#.#.#.#.#.#.#.#.#.#.#.#.#.#.#.#.#.#.#.#.#.#.#.#.#.#.",
"#.#.#.#.#.#.#.#.#.#.#.#.#.#.#.#.#.#.#.#.#.#.#.#.                      #.#.#.#.#.#.#.#.#.#.#.#.#.#.#.#.#.#.#.#.#.#.#.#.#.#.#.#.#.",
"#.#.#.#.#.#.#.#.#.#.#.#.#.#.#.#.#.#.#.#.#.#.#.#.                      #.#.#.#.#.#.#.#.#.#.#.#.#.#.#.#.#.#.#.#.#.#.#.#.#.#.#.#.#.",
"#.#.#.#.#.#.#.#.#.#.#.#.#.#.#.#.#.#.#.#.#.#.#.#.                      #.#.#.#.#.#.#.#.#.#.#.#.#.#.#.#.#.#.#.#.#.#.#.#.#.#.#.#.#.",
"#.#.#.#.#.#.#.#.#.#.#.#.#.#.#.#.#.#.#.#.#.#.#.#.                      #.#.#.#.#.#.#.#.#.#.#.#.#.#.#.#.#.#.#.#.#.#.#.#.#.#.#.#.#.",
"#.#.#.#.#.#.#.#.#.#.#.#.#.#.#.#.#.#.#.#.#.#.#.#.#.#.#.#.#.#.#.#.#.#.#.#.#.#.#.#.#.#.#.#.#.#.#.#.#.#.#.#.#.#.#.#.#.#.#.#.#.#.#.#.",
"#.#.#.#.#.#.#.#.#.#.#.#.#.#.#.#.#.#.#.#.#.#.#.#.#.#.#.#.#.#.#.#.#.#.#.#.#.#.#.#.#.#.#.#.#.#.#.#.#.#.#.#.#.#.#.#.#.#.#.#.#.#.#.#.",
"#.#.#.#.#.#.#.#.#.#.#.#.#.#.#.#.#.#.#.#.#.#.#.#.#.#.#.#.#.#.#.#.#.#.#.#.#.#.#.#.#.#.#.#.#.#.#.#.#.#.#.#.#.#.#.#.#.#.#.#.#.#.#.#.",
"#.#.#.#.#.#.#.#.#.#.#.#.#.#.#.#.#.#.#.#.#.#.#.#.#.#.#.#.#.#.#.#.#.#.#.#.#.#.#.#.#.#.#.#.#.#.#.#.#.#.#.#.#.#.#.#.#.#.#.#.#.#.#.#.",
"#.#.#.#.#.#.#.#.#.#.#.#.#.#.#.#.#.#.#.#.#.#.#.#.#.#.#.#.#.#.#.#.#.#.#.#.#.#.#.#.#.#.#.#.#.#.#.#.#.#.#.#.#.#.#.#.#.#.#.#.#.#.#.#.",
"#.#.#.#.#.#.#.#.#.#.#.#.#.#.#.#.#.#.#.#.#.#.#.#.#.#.#.#.#.#.#.#.#.#.#.#.#.#.#.#.#.#.#.#.#.#.#.#.#.#.#.#.#.#.#.#.#.#.#.#.#.#.#.#.",
"#.#.#.#.#.#.#.#.#.#.#.#.#.#.#.#.#.#.#.#.#.#.#.#.#.#.#.#.#.#.#.#.#.#.#.#.#.#.#.#.#.#.#.#.#.#.#.#.#.#.#.#.#.#.#.#.#.#.#.#.#.#.#.#.",
"#.#.#.#.#.#.#.#.#.#.#.#.#.#.#.#.#.#.#.#.#.#.#.#.#.#.#.#.#.#.#.#.#.#.#.#.#.#.#.#.#.#.#.#.#.#.#.#.#.#.#.#.#.#.#.#.#.#.#.#.#.#.#.#.",
"#.#.#.#.#.#.#.#.#.#.#.#.#.#.#.#.#.#.#.#.#.#.#.#.#.#.#.#.#.#.#.#.#.#.#.#.#.#.#.#.#.#.#.#.#.#.#.#.#.#.#.#.#.#.#.#.#.#.#.#.#.#.#.#.",
"#.#.#.#.#.#.#.#.#.#.#.#.#.#.#.#.#.#.#.#.#.#.#.#.#.#.#.#.#.#.#.#.#.#.#.#.#.#.#.#.#.#.#.#.#.#.#.#.#.#.#.#.#.#.#.#.#.#.#.#.#.#.#.#.",
"#.#.#.#.#.#.#.#.#.#.#.#.#.#.#.#.#.#.#.#.#.#.#.#.#.#.#.#.#.#.#.#.#.#.#.#.#.#.#.#.#.#.#.#.#.#.#.#.#.#.#.#.#.#.#.#.#.#.#.#.#.#.#.#.",
"#.#.#.#.#.#.#.#.#.#.#.#.#.#.#.#.#.#.#.#.#.#.#.#.#.#.#.#.#.#.#.#.#.#.#.#.#.#.#.#.#.#.#.#.#.#.#.#.#.#.#.#.#.#.#.#.#.#.#.#.#.#.#.#."
};
