/* XPM */
static char *e6410aa17768490492d1880a00a7d7eaPUydxFxWoyykPV7u[] = {
/* columns rows colors chars-per-pixel */
"64 64 252 2 ",
"   c #070705",
".  c #0B0A06",
"X  c #0E0C09",
"o  c #110E0B",
"O  c #08100F",
"+  c #15110D",
"@  c #1A130E",
"#  c #0B1615",
"$  c #151715",
"%  c #1B1611",
"&  c #1D1914",
"*  c #1E1E1E",
"=  c #22170F",
"-  c #221611",
";  c #241A15",
":  c #2A1C15",
">  c #231E1A",
",  c #2A1E19",
"<  c #321F18",
"1  c #0E211F",
"2  c #1D211F",
"3  c #24211C",
"4  c #2C211A",
"5  c #33241B",
"6  c #35261C",
"7  c #3B251C",
"8  c #3C2A1F",
"9  c #181F21",
"0  c #1D2222",
"q  c #162829",
"w  c #142E2F",
"e  c #1A2B2B",
"r  c #193738",
"t  c #1B3C3C",
"y  c #232323",
"u  c #2B2824",
"i  c #232B2B",
"p  c #2B2C2C",
"a  c #352A23",
"s  c #3C2C22",
"d  c #2C322E",
"f  c #383129",
"g  c #282E31",
"h  c #293336",
"j  c #353938",
"k  c #44291D",
"l  c #522B1E",
"z  c #422C22",
"x  c #4A2D22",
"c  c #512C22",
"v  c #453125",
"b  c #4C3225",
"n  c #49362C",
"m  c #543323",
"M  c #553829",
"N  c #5B3B2D",
"B  c #483C33",
"V  c #5A3D32",
"C  c #653A2B",
"Z  c #693D32",
"A  c #1A403F",
"S  c #34433E",
"D  c #5E422E",
"F  c #484138",
"G  c #5C4232",
"H  c #58463B",
"J  c #66412E",
"K  c #674737",
"L  c #764936",
"P  c #724D3C",
"I  c #6C513F",
"U  c #78513C",
"Y  c #1D3F40",
"T  c #353D43",
"R  c #0B4B4B",
"E  c #194747",
"W  c #165858",
"Q  c #374349",
"!  c #305052",
"~  c #33655E",
"^  c #0D6F6F",
"/  c #156767",
"(  c #0D7778",
")  c #147778",
"_  c #2B6F70",
"`  c #464948",
"'  c #574D44",
"]  c #5B534B",
"[  c #495357",
"{  c #585A55",
"}  c #6B5445",
"|  c #6A544B",
" . c #745443",
".. c #785745",
"X. c #7D5A45",
"o. c #7C5B4A",
"O. c #596557",
"+. c #676659",
"@. c #7D6350",
"#. c #4D5C64",
"$. c #5B6B6F",
"%. c #596D7A",
"&. c #686E65",
"*. c #6B6E6F",
"=. c #6B7467",
"-. c #74786B",
";. c #787B74",
":. c #8F4C37",
">. c #86533D",
",. c #8E4C44",
"<. c #875945",
"1. c #835D4A",
"2. c #935A4A",
"3. c #A45953",
"4. c #86624D",
"5. c #8B634D",
"6. c #92644C",
"7. c #99674D",
"8. c #8A6452",
"9. c #896956",
"0. c #936A53",
"q. c #9C6B53",
"w. c #986A57",
"e. c #8D715D",
"r. c #9A735A",
"t. c #AA694D",
"y. c #A26C55",
"u. c #A4745B",
"i. c #A8775B",
"p. c #AB755C",
"a. c #B3795D",
"s. c #857667",
"d. c #9A7764",
"f. c #877C73",
"g. c #B36B65",
"h. c #A77B66",
"j. c #AC7C64",
"k. c #B27D63",
"l. c #B87C67",
"z. c #C1775D",
"x. c #19817F",
"c. c #34857E",
"v. c #4C837A",
"b. c #69847D",
"n. c #7D8578",
"m. c #83897B",
"M. c #95867A",
"N. c #9B8B7D",
"B. c #AB816B",
"V. c #B88467",
"C. c #B4836B",
"Z. c #BB856C",
"A. c #A68D7C",
"S. c #B68A76",
"D. c #BB8B73",
"F. c #BD927B",
"G. c #C2896C",
"H. c #C58C73",
"J. c #C89275",
"K. c #C4937A",
"L. c #CA957C",
"P. c #D2987C",
"I. c #1D7E80",
"U. c #6A7C82",
"Y. c #747B85",
"T. c #0B8686",
"R. c #168888",
"E. c #168F91",
"W. c #0A9697",
"Q. c #189999",
"!. c #349290",
"~. c #31A29E",
"^. c #0A9FA1",
"/. c #0AA6A7",
"(. c #16A7A7",
"). c #07B1B3",
"_. c #2FAEAD",
"`. c #4B918D",
"'. c #698688",
"]. c #6B8A99",
"[. c #748F94",
"{. c #708FA2",
"}. c #7A96A5",
"|. c #47A7A7",
" X c #5FA6A3",
".X c #4CB3B1",
"XX c #58B7B6",
"oX c #5DC3B9",
"OX c #28BFC4",
"+X c #5EBEC1",
"@X c #68BCC8",
"#X c #59C7C3",
"$X c #65C7C5",
"%X c #72D0D6",
"&X c #79D6E1",
"*X c #878A87",
"=X c #888F8F",
"-X c #978C86",
";X c #9B8D83",
":X c #9E9086",
">X c #9C928A",
",X c #979895",
"<X c #A08F81",
"1X c #A49282",
"2X c #A2958B",
"3X c #AB9788",
"4X c #B69986",
"5X c #A79B95",
"6X c #AA9D95",
"7X c #93A697",
"8X c #B4A18F",
"9X c #ABA29B",
"0X c #B2A399",
"qX c #8598A7",
"wX c #9A9EA6",
"eX c #9BA5AB",
"rX c #90A9B4",
"tX c #ABA9A8",
"yX c #B7ABA7",
"uX c #B6B1B1",
"iX c #CD9C84",
"pX c #C69C88",
"aX c #D49D86",
"sX c #CBA38F",
"dX c #D3A38D",
"fX c #DAA48B",
"gX c #D9A894",
"hX c #DBAA94",
"jX c #E3AC99",
"kX c #E3B19D",
"lX c #C9B3AA",
"zX c #C7BAB6",
"xX c #E9B7A7",
"cX c #CBC1BD",
"vX c #99BACE",
"bX c #90CBD0",
"nX c #A7C4D8",
"mX c #B0D1D6",
"MX c #88DCE7",
"NX c #AACEE3",
"BX c #AED4E7",
"VX c #B2D7EA",
"CX c #D6CAC6",
"ZX c #C9D0CE",
"AX c #DDD2CE",
"SX c #DDD2D0",
"DX c #E1D4CE",
"FX c #E1D5D2",
"GX c #E7DAD7",
"HX c #CADBE8",
"JX c #E1E5EB",
"KX c #F0E2E1",
/* pixels */
"y y y y y y y y y y y y y i W W.W.R $ o o & ; > & + + + + o + o + % o o o X o + + % ; i ^ W.( t y y y y y y y y y y y y y y y y ",
"y y y y y y y y y y y i E T.E.W u ; % o + + @ % % @ + o o o o o X X . o X X o + o % ; , ; e ^ W./ g y y y y y y y y y y y y y y ",
"y y y y y y y y y y g / W./ p , ; % + X . o % > & ; % + + o o . X . X X X X o + o + % ; ; & % r T.T.E i y y y y y y y y y y y y ",
"y y y y y y y y y t ) E.! a , ; @ o X . . X o + % % + + + % + % . X X . X X X o + + % % % % + + $ W W.W i y y y y y y y y y y y ",
"y y y y y y y i E E.R.F s 4 > % @ + o . . X X o o + + @ & o o & . . . . X X . o & + + o + + + o + & E E.^ r y y y y y y y y y y ",
"y y y y y y i W Q.v.H n f 4 ; % @ + o X + o o + + + o @ @ % @ @ o o X X o X . o o + o . . o o o + @ > S R.) t y y y y y y y y y ",
"y y y y y i W Q.`.' n B n 4 ; % @ + X X X o o o + % % - - ; - ; % o + + o o X . X o o o X X o + % @ & u ! ~.R.Y y y y y y y y y ",
"y y y y i W Q.`.=.H B B n f 4 > % + X X . . . o + ; 4 : 6 6 7 6 ; @ % + o o o o + @ + o X X o + & & & ; u [..XR.t y y y y y y y ",
"y y y y E E.c.;.-.' v B s a a 4 ; % + o o X o + @ - , 7 x M m b z ; @ + + @ @ % ; ; % % o X o + % % % & p Y.qX.XI.r y y y y y y ",
"y y y t T./ O.;.-.+.n a 5 5 5 5 4 4 ; ; % % @ @ - : 5 x N J L L b < ; @ % - ; , , ; % % % + o + + + @ % & ` [.bX_./ i y y y y y ",
"y y g ( ^ d O.;.;.+.n a s 5 5 5 4 4 , 4 4 , ; : 7 x m J L <.<.<.J b 7 : - : : 5 5 ; - @ @ + + + + % @ @ % 3 b.7X[.~.W i y y y y ",
"y y / T.e p O.n.;.+.6 6 8 6 5 4 4 , ; , 6 5 < k M J J <.<.6.7.y.q.P m x 5 : : : 5 5 : = + + o + + + + + @ & $.n.*X XQ.E y y y y ",
"y E ^.! 2 d O.;.-.] 5 s s a 5 , ; % - ; 7 7 7 N L <.2.y.i.i.V.a.i.6.>.J N m 7 < 5 7 5 : % + o o o o o o + & %.mXHXHX.X) i y y y ",
"i T.|.j 0 d +.-.+.B 6 a 6 5 4 ; @ @ @ ; k 7 M U <.7.p.k.C.V.V.V.k.p.7.<.<.U m x k 5 k 7 - @ + + + X o o $ & '.HXJXHX'.Q.W y y y ",
"W _.}.h 0 d &.;.+.f 5 5 5 4 ; @ + o @ : k k L 2.y.p.a.k.V.Z.H.V.V.C.p.y.7.2.L J m 5 b s , % + + + X o o + & Y.HXmX7X+.~ T.i y y ",
"W.@X}.h 0 j &.n.-.F 5 4 4 ; @ @ + o @ : 7 x U q.Z.K.Z.Z.Z.Z.J.H.Z.H.V.a.y.y.>.>.J 7 N M 8 - @ @ + X o o + % $.mXeX,Xm.O.Q.W y y ",
"OXnX}.g 0 j &.n.;.] a , ; - % @ @ @ , 6 7 J 7.Z.iXgXdXiXK.H.K.L.L.L.J.G.l.p.t.2.J k J J b - + + o X X o + % ` ;.eXmXuXm. XQ.i y ",
"@XnX}.g 0 j =.n.n.=.B ; - - % @ + , M J K q.Z.iXgXkXgXgXdXiXL.L.iXiXL.L.H.l.y.>.M m L J m : o X o X X o o % & d '.mXtX>XeX_.E y ",
"vXnXqXg 0 j =.n.m.n.+.B - % @ + % B 4.0.u.D.iXgXgXkXgXgXgXiXiXiXiXiXiXL.J.Z.y.<.J J U U K 8 + X X X X X o + % ` qXeX,X9XtX`.T.y ",
"nXnXqXi 0 j =.n.m.m.m.{ ; % @ @ s o.h.j.F.aXdXdXdXdXdXiXiXiXiXiXiXiXL.L.L.Z.p.w.6.>.U L ..J 4 X . X X X X o % j Y.=XtXtX,X].(.r ",
"nXnX}.i y j =.m.m.m.m.+.a ; % ; H r.j.D.F.S.S.h.h.h.h.C.Z.K.L.K.K.K.D.D.D.C.h.y.w.<.L L <.U M @ . X X X X o @ p Y.,XtXtXn.qX_.W ",
"[.}.$.y y S -.m.m.m.*X-.B > ; a o.h.h.o.K K H n v v v o.r.C.D.D.C.V.1.P o.o.P G V K J 1.1.X.K 6 o . X + + + % ` *XeXuXtX=XrX@XT.",
"Q ` j 0 0 S -.m.m.m.*Xn.' 4 4 B e.h. .z 5 4 , ; % + @ s 1.r.h.j.u.5.b s 5 4 : - ; 4 4 n I X...n % . . X + + @ ` n.tXuXtXwXqXVX).",
"i i i 0 2 d { &.=.=.-.-.] s s K h.h...G N M M M m x k k L <.q.u.q.J 6 ; - - 5 5 4 5 4 4 s K 1.G ; X . . X + 3 =.,XtXyXtXtX=XHXOX",
",X,X>X*X*Xm.m.m.;.&.+.{ ' B n o.S.S.0.U J M M x z 7 m C C U h.C.q.J m m m k k k b M G G G K 1.K 4 + .   . + f f.,X5X5X5XtX,XuX.X",
"FXFXFXFXAXAXAXCXCXCXCXlXB.8.K e.pXF.u.U m 5 , ; ; a 7 l C <.K.dXB.<.L C k : @ @ 4 M J P X.o.4.I a $ X X o % ` [.=X=X=X=X,Xm.,X X",
"FXGXGXGXGXGXGXGXGXGXGXgXt.j.e.B.sXsXF.h.8.V x a a V c c U y.dXgXK.q.U l k B ; % a z k U 5.8.5...f & + % u S U.vXvXvXrX'.$.O.$.`.",
"AXSXFXFXFXFXFXGXFXGXGXsX:.7.h.S.gXgXgXdXK.q.2.<.<.>.>.5.6.G.kXfXL.p.6.5.U >.P  ...1.4.q.r.r.0.1.n 5 b } [.'.rXNXVXnXrXqX=X=X=X].",
"CXAXAXAXSXSXFXFXFXFXDXpX:.y.S.pXgXgXgXgXdXL.k.y.q.q.q.q.p.P.xXfXP.p.y.7.2.>.:.>.6.r.j.j.i.r.w.8.H G U  .eXqXvXVXNXqXY.Y.'.Y.Y.'.",
"CXCXCXAXAXAXAXAXAXAXCXpXt.D.B.pXdXdXfXfXgXfXiXK.l.k.k.Z.H.aXxXfXL.k.a.i.j.p.u.a.k.k.V.V.V.i.r.9...1.L L eXnXNXVXnX! ! [.}.].'.'.",
"zXcXCXCXCXAXAXAXAXAXCXsXz.a.h.4XiXdXgXjXgXgXgXgXdXaXL.J.aXkXxXfXJ.k.k.V.D.Z.k.k.l.V.V.Z.V.h.r.9.o.1.L Z eXBXVXVXvXh '.mXVXBXBXmX",
"zXzXzXCXCXCXCXCXCXCXCXlXH.l.h.A.dXgXgXgXkXkXjXjXkXjXjXfXgXkXxXfXH.V.V.V.J.H.G.Z.V.V.V.V.j.h.d.9. .1.>.,.eXVXVXVX}.g }.mXBXBXmX$X",
"zXzXzXzXcXCXzXyXzXCXCXlXiXJ.S.A.sXdXgXkXxXkXjXjXjXjXjXiXdXxXjXaXL.l.C.Z.H.J.J.H.J.H.Z.C.C.h.r...K <.q.e.rXVXVXBX%.r {.bXbXbXoX#X",
"yXlXzXzXzXyX>X>XuXzXzXlXgXaXh.d.pXsXgXgXgXkXgXfXfXaXL.aXkXxXfXP.iXl.p.k.G.L.P.J.J.L.K.S.B.h.e.} } 6.7.2XnXBXVXnX#.w I.|.XX.X.X$X",
"yXyXuXuXyX-.2 B 5XzXzXlXlXiXu.d.F.pXsXgXdXfXfXL.J.G.L.aXaXfXaXdXK.Z.k.j.Z.J.P.J.J.L.K.S.B.d.9.H } q.u.6XnXNXBXvXQ w !.+X%X.X_ ~.",
"0XyXyXyX0X] 2 ` yXzXzXlXsXH.r.r.4XpXpXiXiXL.G.V.a.a.G.k.y.G.l.l.u.u.u.p.k.G.J.J.J.H.D.B.B.d.9.} @.y.y.6XnXBXBXrXh _ @X%X$X.X_ R.",
"9X0XyXyX9X+.$ j >XyXyXyX0XB.1.4.h.S.F.F.D.V.a.t.p.Z.l.C x >.<.6. . .<.q.a.V.V.Z.D.Z.C.B.d.r.} H 1.q.u.5XnXNXNX{.h `.%X%X$X.Xc.Q.",
"5X6X6X0X9Xf.u B >XyXyXyX0X3Xd.@.9.B.B.j.i.q.6.6.j.j.w.1.7 x M K s z P 6.p.k.a.a.p.p.u.h.r.e.' H 9.r.d.,XrXrXrX#.r  X%X%XoX.X!./.",
"2X5X5X6X9X5X-X-X6X0X9X9X9X9X>X+.o.d.h.i.6.P G K 9.P N V v = 5 6 , 6 b M X.r.q.6.q.i.r.e.e.@.H G 4.e.s.{ [ #.#.0 E XX%X$X.X|.!.).",
"2X2X2X5X5X6X6X6X6X6X5X5X6X6X;X] n o.0.5.J 6 6 8 z n n s , @ : - , - : 6 z K G G D 5.r.e.4.} H @.9.9.*.%.%.%.[ 9 ~ @X%X.X!.c.!./.",
":X2X2X2X2X5X5X5X5X5X2X2X5X2X>X| a G o.I 6 = = : 5 z < 7 < < b < : ; , , 4 4 4 4 4 M 8.9.} B { ;.] Q %.].{.{.%.e I.%X%X!.W E ( ( ",
";X:X2X:X2X2X2X2X2X2X2X2X2X2XM.' 4 a G M : = : < , z x M m Z L C z 7 < , : - @ + + 5 K I v f %.}.! j %.{.{.{.#.w `.&X%X.X!.E W.E ",
";X:X:X:X:X>X:X:X:X;X:X:X:X;Xs.F ; ; z 8 : 5 m x : 6 N Z Z K C C Z M x v 5 ; : @ @ , n s 4 3 #.'.Q Q %.].].].Q t .X&X&X%XXXI.^.0 ",
"=X;X:X:X;X;X;X;X;X;X;X;X;X;Xs.B ; , 5 s 4 6 K 1.<. .,.,.,.2.<.<.<.P N K z b V 6 - 4 s ; & y ` ` j T [ #.$.#.i ! @XMXMXMX|.(.^ 0 ",
"|.;X:X:X>X>X;X;X;X;X;X;X;X;Xf.F ; ; , 4 , k I r.C.D.l.g.g.3.3.,.,.,.,.2.<.6.X.v 4 5 5 & $ u j p y y i g d p # ~ @XMXMX%X!./.r y ",
"(.=X:X0XzXzXyXyX0X5X;X;XN.N.f.H ; ; ; ; ; v P 0.j.D.l.g.3.2.2.,.,.2.7.r.0.6...z , 4 & % + u Q h * y g h h 0 # t !.XX@X|.Q.( 0 y ",
"( |.2XCXKXKXKXGXGXzX2X;XN.M.f.| a > ; - ; s K U 4.8.1.1.K J N V P 1.1.1.<.U D 7 ; % $ $ $ y T h * i T Q Q e # w E _ I._ W.t 0 y ",
"r (.7XSXGXGXKXKXGXlXN.;XN.N.M.-.' f 4 ; ; 6 n V J K N M 8 s 6 s z M G N J J b , % + + % & u j g * g T Q Q 0 # w E A A T.^ 0 y y ",
"0 / .XZXFXFXFXFXCX8XN.N.;XN.M.f.-.H , & % ; 6 v x N v 5 5 5 , u , z b x M b 8 ; + + + % > p j i y h Q Q T 9 # q w q R T.r 0 y y ",
"0 e E.bXFXFXFXSXzXN.M.A.N.N.M.M.M.| 6 % % & , 6 8 z n 6 4 ; ; 5 , s v 8 s 5 , % + + + ; u p g y y h Q Q h # O # # w T.W 0 0 y y ",
"y 0 E _.nXSXSXAXyXs.s.A.1XN.N.M.M.d.K , % % ; 4 6 8 n z 5 : 5 6 4 8 v 6 6 5 & + + + & s f p u y u j Q Q g O O # 1 ^ ^ e 0 y y y ",
"y y 0 W .XmXSXCX6X@.s.A.1X<XN.N.M.B.r.n % + ; , : 6 s s 5 6 6 v : s s 4 4 ; + + + + 4 H H p u > i j Q Q e X O # W ( t 0 0 y y y ",
"y y * e ) #XZXCX6Xs.M.1X1X1X:XN.N.S.j. .a @ % & - , 5 , 4 , 5 a ; 4 4 , % % + + o % s } } p y > i j T j * . # R T.E 0 y y y y y ",
"y y y 0 r R.$XcX8X1X1X3X3X1X1XN.A.S.j.0.n & + % @ % ; & % % ; ; % % & & + + + + + , G o.} u > * y i g i $ X R T.W 0 * y y y y y ",
"y y y 0 2 r R.XX9X3X3X3X3X3X1X1X3XF.C.r. .v ; + o + + o o o + + + + + + X o o $ , n ..4.} u * * * y y * X R T.W e * y y y y y y ",
"y y y y 0 0 r x..X5X3X3X3X3X3X1X4XK.C.u.4.P s - @ o X . . . . . X o X X X + & 6 M K 1.5...B f f f j f > R I.W e 0 y y y y y y y ",
"y y y y y * 0 r ) |.7X8X3X3X3X3X4XK.Z.h.w.1.P } K 5 o X .     . X X . X + , v K P X.<.6.@.] ] ] { { { _ T.W e * y y y y y y y y ",
"y y y y y y * 0 w / ~.}.8X8X3X4XiXJ.Z.j.w.1.1.o.o.} v ; X . . . X . o ; n I I I X.1.5.0.e.f.M.M.M.*X~.R.E 0 * y y y y y y y y y ",
"y y y y y y y * 2 e W Q.XX9X4XdXdXK.Z.j.r.5.1.8.8.1.K M a % % % a a v K } o.o.X.1.4.0.0.r.f.;XN.'.~.) t 0 * y y y y y y y y y y ",
"y y y y y y y y y * 0 t ) _.7XsXiXK.D.C.r.8.4.9.e.1.P K V z 8 b V K } ..@.@.o.4.4.5.0.w.r.e.n.|.Q.W e 0 * y y y y y y y y y y y ",
"y y y y y y y y y y * * q E E._.7XF.D.B.w.6.1.4.9.1.U  .K N M V I } .. .@.4.8.4.5.0.0.r.s.`.Q.^ r 0 * * y y y y y y y y y y y y ",
"y y y y y y y y y y y * * * e W E._.[.M.u.0.5.5.8.1.X.X.U K K  . .....o.4.8.5.5.5.9.-.`.(.) t 0 * * 0 y y y y y y y y y y y y y ",
"y y y y y y y y y y y y y * * * 0 E T.(.~.b.e.5.4.X.4.o...U P ..I } 4.4.8.8.4.-.`.(././ r 2 * * * y y y y y y y y y y y y y y y ",
"y y y y y y y y y y y y y y y * * * * e W T.).(.!.`.$.&.| I U o.@.+.=.v.`.~./.^.( E 0 * * * 2 y y y y y y y y y y y y y y y y y "
};
