/* XPM */
static char *d528f1f95a514efe9badff97be14dbe88YID7nGIxDT3lKks[] = {
/* columns rows colors chars-per-pixel */
"64 64 249 2 ",
"   c #060606",
".  c #0A0906",
"X  c #0D0D0C",
"o  c #110E0C",
"O  c #180D09",
"+  c #14110E",
"@  c #1C120E",
"#  c #0F0F10",
"$  c #110F10",
"%  c #141312",
"&  c #1A1512",
"*  c #1D1915",
"=  c #131618",
"-  c #1D1B19",
";  c #23150E",
":  c #28180E",
">  c #221612",
",  c #281611",
"<  c #241A15",
"1  c #2B1C14",
"2  c #231D1A",
"3  c #2C1E1A",
"4  c #351E16",
"5  c #2E2017",
"6  c #26211D",
"7  c #2D211C",
"8  c #332116",
"9  c #33231B",
"0  c #3B261B",
"q  c #191E23",
"w  c #1A242B",
"e  c #2B2421",
"r  c #292725",
"t  c #322623",
"y  c #352925",
"u  c #3B2B23",
"i  c #352B28",
"p  c #3B2E2A",
"a  c #2D312F",
"s  c #36342D",
"d  c #363B33",
"f  c #393935",
"g  c #491E0F",
"h  c #442518",
"j  c #442A1E",
"k  c #4B2B1C",
"l  c #532C1B",
"z  c #58321E",
"x  c #6F391C",
"c  c #432D22",
"v  c #4B2E22",
"b  c #442E28",
"n  c #572D24",
"m  c #453126",
"M  c #4C3225",
"N  c #48352B",
"B  c #4A342A",
"V  c #533325",
"C  c #5B3523",
"Z  c #5C3926",
"A  c #533529",
"S  c #543A2C",
"D  c #5B3B2B",
"F  c #4A3A35",
"G  c #533C33",
"H  c #5B3D32",
"J  c #683A25",
"K  c #6A372E",
"L  c #633D2B",
"P  c #763926",
"I  c #3E4439",
"U  c #5A4337",
"Y  c #4F5333",
"T  c #65412E",
"R  c #6C422D",
"E  c #73442D",
"W  c #7B472B",
"Q  c #644333",
"!  c #6B4433",
"~  c #68483A",
"^  c #754A36",
"/  c #7C4B34",
"(  c #7C513B",
")  c #5B653C",
"_  c #63643E",
"`  c #313C44",
"'  c #334952",
"]  c #36445B",
"[  c #37475C",
"{  c #354C61",
"}  c #3B4C64",
"|  c #3E4F6A",
" . c #3B5163",
".. c #3F516C",
"X. c #3F5C78",
"o. c #474847",
"O. c #584A46",
"+. c #565849",
"@. c #535352",
"#. c #684B40",
"$. c #6A5346",
"%. c #6E564E",
"&. c #7B5444",
"*. c #765549",
"=. c #5C6146",
"-. c #666759",
";. c #6E7051",
":. c #435566",
">. c #4F5765",
",. c #41526E",
"<. c #45596C",
"1. c #435470",
"2. c #455D75",
"3. c #506B69",
"4. c #4A6277",
"5. c #4E657B",
"6. c #52677B",
"7. c #51697E",
"8. c #6C6E68",
"9. c #767968",
"0. c #787776",
"q. c #813027",
"w. c #894B2A",
"e. c #824E35",
"r. c #83533B",
"t. c #89563A",
"y. c #955838",
"u. c #935C3C",
"i. c #A05D35",
"p. c #9B613D",
"a. c #AC663D",
"s. c #855947",
"d. c #8C5B43",
"f. c #935E43",
"g. c #995A4A",
"h. c #845D52",
"j. c #A55E46",
"k. c #8D614D",
"l. c #9B6444",
"z. c #96644A",
"x. c #8B6455",
"c. c #976957",
"v. c #9B705F",
"b. c #A66948",
"n. c #B1714B",
"m. c #A46B55",
"M. c #A97359",
"N. c #B47958",
"B. c #9C7364",
"V. c #94746B",
"C. c #A77766",
"Z. c #AD7963",
"A. c #AC7C6C",
"S. c #B37C65",
"D. c #A97E71",
"F. c #C35C59",
"G. c #CC716D",
"H. c #7C8575",
"J. c #BC815F",
"K. c #87877A",
"L. c #958779",
"P. c #BA8366",
"I. c #B4816C",
"U. c #AA8276",
"Y. c #B38473",
"T. c #B48572",
"R. c #B98B78",
"E. c #C0845F",
"W. c #C38A6A",
"Q. c #CC8E7A",
"!. c #466886",
"~. c #526B80",
"^. c #54778B",
"/. c #4C7797",
"(. c #6F7C87",
"). c #4E7FA1",
"_. c #78858D",
"`. c #4C82A3",
"'. c #5487A8",
"]. c #558EB3",
"[. c #5794BA",
"{. c #6B98B3",
"}. c #7FA2B7",
"|. c #599AC1",
" X c #659EC3",
".X c #75A6C4",
"XX c #8A8886",
"oX c #969489",
"OX c #878A92",
"+X c #908F90",
"@X c #979599",
"#X c #B29285",
"$X c #A99B95",
"%X c #B19E95",
"&X c #B29F98",
"*X c #9EA38D",
"=X c #9CA296",
"-X c #A3A599",
";X c #A2A699",
":X c #A5A99B",
">X c #A9AC9E",
",X c #B4A196",
"<X c #B5A39B",
"1X c #B9A69C",
"2X c #B7A99D",
"3X c #909BA8",
"4X c #A79AA6",
"5X c #B19AA9",
"6X c #89A3B5",
"7X c #98A6B0",
"8X c #A7A8A8",
"9X c #B6A9A6",
"0X c #BCAAA3",
"qX c #B6B1AE",
"wX c #A9AAB4",
"eX c #AAB5B6",
"rX c #B6B4B8",
"tX c #C79787",
"yX c #D09B8B",
"uX c #E79790",
"iX c #D4A290",
"pX c #EBA49D",
"aX c #C1AEA8",
"sX c #C5B2AC",
"dX c #CAB9B5",
"fX c #D1C1BE",
"gX c #93B2CB",
"hX c #B1B9C5",
"jX c #C1BFC5",
"kX c #A3C6DE",
"lX c #B9CAD1",
"zX c #C9C6C7",
"xX c #D9C9C7",
"cX c #CFD0D3",
"vX c #E3D4CD",
"bX c #E7D8CE",
"nX c #E7D7D4",
"mX c #EBD9D7",
"MX c #EDDCDA",
"NX c #EBE2DD",
"BX c #F2E2DE",
"VX c #D4D9E5",
"CX c #ECE6E4",
"ZX c #F5E5E3",
"AX c #F9E8E6",
"SX c #FAECEA",
"DX c #EAEFF6",
"FX c #F4F6FA",
"GX c #FDFEFF",
/* pixels */
"|.|.'.^.^.7.7.5.,.1.....,...!.]. X}.6X}.6X+X@.f i t t e e 7 e 6 2 2 6 e 6 2 6 2 e e a 8._.[./.1.,.,.1...,.,.,.1.1.,.......,.| 1.",
"[.!...1.......| | | ..,.2.'. X3.;.3X6X}.(.F i t e e 3 e 2 2 * 2 2 6 2 6 2 6 e 6 2 2 6 e s Y ^.[./.| 1...| 1.1.,.,...,.,...,.,.1.",
"2...,.,.,.| | ..,...,./.[.0.@XgXH.K.=X8.f y e t 3 2 7 2 e e 6 * * 2 - * * - * 2 * 2 - 2 2 r +.+./.].2...| ,.1.,.,.,.1.,.,.| ..,.",
"..,.,.,.,.,.,.,...,.].'.) _ _ -._._.-.N p i e e y 2 2 % % * & 2 & + - e & * - & & - - 2 2 6 s ;.;.6X[./.| ,.1...,...,.,.,...| ..",
"..,.| | ,.1.,.,.2.[.4.H.hXOXOXK.*X-.p p i t 7 * & 2 * 2 2 - 2 + * & % & % % % % = & * & * * 2 t 9.;.Y '.'...| ........1...,.| ..",
"..,.| | | 1.,.!.|.@.Y 0.wX7XgX*X;.p y t 7 2 * - * & * & * & & o % o + 2 - + & % + * & & * * 2 - +.eXXX) ^.].1...1.......,.,.| ,.",
"| ....,.,.| !.|.' a s 0.hX7XwX@Xy p 7 2 N y e 9 p 7 & & 6 2 & * % + & & & + + + % o + + & & - & 2 eXcXK.=.gX]...,.,.....,.,.,.,.",
"| | | ,.,.!.|.+XI a a 0.rX7XgXU p t 7 G &.x.h.c.D.V.*.%.*.G m 3 & * & 2 0 9 < > 1 & + & + + % & * f H.9.Y _ 3.].,.,.,.,...,.,.,.",
",.......2.|.wXoXf a s 0.rX7X0.p t 9 N c.C.A.R.#X#X#XtXtXR.I.v.c.0 M V T E r.t.R L C k k 9 < o % + * +X;X$XY +.}.].| ,.......,.,.",
",.,...| [.3XqXoXf a s 0.rX7XF y t m k.C.A.Y.#XtXtXsXsX#XR.Y.A.z.v.T d.t.t.t.r.e./ E J J l k 1 & % * s xX) 8.Y rX}./.,.,.,.,.,.,.",
"| ,.| ].(.+XqXoXf s s 0.hX9.p p u &.C.C.Y.R.Y.R.iXyXR.R.Y.I.u.Z.M.m.z.f.f.u.t.r.t./ E J J J k > & & * zXY 8X7X+.I |.!...,.,.....",
",.1./.{.V.@XqXoXd s s K.hXF p y u h.A.A.A.A.A.Y.#X#XA.Y.A.A.S.M.M.m.l.z.f.z.t.d.t./ J E K J z 8 & & + Y Y cXeX8.-.zX[...,...,...",
",.1.|.$X$X4XqXK.d s d XXrXy s s G x.A.Y.A.Y.Y.A.Z.I.Y.A.Z.M.Z.M.S.m.c.l.l.z.d.t.e./ ^ E R J J V 2 2 * a $X:X3X-.xX2X7X'...,.,.,.",
",.'.6X8X8XwXqXXXd s d H.@Xs y s U B.A.A.A.I.Z.A.M.v.M.M.M.m.c.l.M.m.z.z.f.z.d.r./ ^ W E E R R A 6 & & 2 Y Y ) zXxXqX8X X!...1...",
"!.{.8X8X8XwXqXK.f s d XXXXt t i H v.A.A.A.A.A.M.c.C.Z.M.m.m.m.m.b.l.f.d.d.d.d.e.e.e.r./ / E R D 1 & & & $XqXXXzXfXXXcXlX].....,.",
"].7X8X8X8X8XqXK.d d f XXXXe t y ~ B.C.A.Y.A.A.C.C.Z.A.Z.M.Z.M.Z.m.b.z.f.t.t.r.t.e./ r./ / E L D 1 % % % +.=.9.VXqXqXvXvX.X!.....",
"{.;X;X:X>X8X8XK.d d I XX8.p t m s.c.B.C.Y.D.A.C.Y.A.Z.I.I.I.S.N.M.m.z.z.d.t.t.e.r.r./ r./ ^ L D 9 & + & Y ;.eXDXDXNXvXvXzX].| ,.",
"3X=X;X;X:X>X9XK.d d ' +XV.7 y *.&.x.B.B.D.Y.Y.Y.Y.R.S.S.I.S.S.P.P.N.b.l.f.f.d.t.t.t.( ( / ! L A u & % % =.;.7XFXDXCXvXvXvX.X!.,.",
"=X;X;X:X:X>X>X9.d d o.+X-.t t x.s.x.v.C.Y.R.Y.T.R.R.R.R.R.I.S.P.P.N.n.b.l.u.u.t.t.r.( / E ! D H m & % % $XwX@XlXcXNXbXvXvXVX'.,.",
"=X;X;X:X:X>X>X9.d f o.@X-.t N x.c.c.C.I.R.R.R.Y.T.T.R.S.N.S.I.P.N.N.n.b.b.b.z.l.l.d.r./ E L H S M * = = 8XzXH.8XDXCXvXvXCXGX X..",
"=X;X:X:X>X>X>X9.d d o.@X8.i i c.x.c.A.Y.B.*.*.#.x.k.z.z.k.z.m.S.N.b.l.l.f.z.r.r.( r.d.t.^ ! D G N & % % rXzXH.Y zXmXbXnXFXGXgX!.",
";X;X:X:X>X>X:X9.d d o.@X0.p F c.c.v.h.U F N u 9 p y u A T R t.u.p.W W ^ ~ U S N u m S ! ^ R U G S * % = dXjXlX-.=.CXnXCXGXGXlX'.",
";X;X:X:X>X>X:X9.d d o.@X@Xp x.k.k.! b S H D M 3 < > & < > 1 J W W k 0 0 9 3 2 & > < 9 0 m Q ~ U U * & - zXK.lXeX=.DXmXDXGXGXlX[.",
";X;X:X:X>X>X>X8.I d o.@X@XF c.k.d.^ ^ / d.d.t.! v 1 @ @ @ @ 0 C z 8 ; > @ @ & 1 V L L V u 9 U Q U 6 = o.zXwXcXFXFXCXNXGXGXGXGX.X",
";X:X:X>X>X>X:X8.d d @.XXXXF x.d.r.r./ L k k s.^ h 8 1 ; > @ 8 j j ; @ @ @ , 0 C J J E E R V A ~ U 6 * $XzXhXcXGXGXCX9.zXGXGXGXkX",
"K.XXXXoXoX*XoX-.d f 8.#Xc.F x.d.r.R k 0 v 0 ; e @ , 1 ; ; 1 U &.D 8 : ; ; 9 1 8 M T M 8 L T Q ~ #.u - dXzXhXrXFXGXDX;X) 9.>XGXkX",
"oXoXK.V.9.-.=.I a +XfXr.S.U k.d.d.! 0 , 1 $.% + 2 x.0 0 M l I.b.t.h h 8 ; O.p r - 2 1 u 0 Z Q ~ ~ O.o.qXdXzXqXcXvXcXxX9XY Y oXhX",
"SXSXZXZXZXZXCXMXMXCXZXg &.#.c.k.c.B.A.C.s.Q V U Q Q M 9 l j.W.n.i.P h 8 h Q $.% & 9.3 1 8 M ~ #.~ O.%.( $XqXoXqXqXrXrXrX;X) _ =X",
"SXSXSXSXSXSXSXSXSXSXSXl c.*.k.c.C.I.I.Z.c./ R z h A D W b.P.N.a.a.w.K l Q h h C D L L ! ! ~ ~ ~ ~ U U A H (.0._.(.OXOXOXOX_.K.+X",
"SXAXAXAXAXSXSXSXAXSXBXJ W.c.c.Z.I.P.P.I.M.M.d.s.&.z.M.b.W.yXW.n.a.y.w.W e.&.( J J W / r.( / ^ ~ ~ U c l v wXwXwX4X4X4X4X@X+X+X@X",
"ZXZXAXZXAXZXZXZXZXZXBXP.w.*.v.M.S.W.W.N.P.Z.v.R.Q.R.M.P.iXiXtXn.n.n.i.W u.b.r.d.u.u.u.u.u.e.( ~ #.F ^ J %.OX@X@X@X@X@X4X4X4X5X5X",
"ZXBXBXZXZXZXBXBXBXBXnXb.x ~ m.m.M.J.P.P.S.tXiXyXQ.b.M.tXiXpXiXN.P.N.n.y.t.b.n.p.l.b.b.b.l.u.r.^ $.u r.J G - - - r a s f o.O.@.@.",
"MXMXMXMXMXMXMXMXMXMXmXn.w.&.c.b.b.N.N.M.Q.Q.yXW.y.m.yXS.n.b.p.b.l.b.N.N.y.b.N.N.b.b.n.n.b.l.d.&.~ 9 x / U = % $ % + = % = % = - ",
"nXMXMXMXMXMXmXmXnXnXvXN.n.( z.l.l.b.N.S.W.W.E.l.J f.y.W J x E P W P r.y.f.e.M.N.N.n.b.b.p.u.t.&.$.j x / i % % % % % X % $ % % w ",
"dXvXnXmXnXnXnXnXvXvXvXP.a.Q.c.z.u.b.N.N.P.N.b.W R C O . . 1 k V h 8 . O h ^ y.n.n.n.N.b.u.d./ &.$.M x / & X % X % $ X X o X X w ",
"oXzXvXvXvXvXvXvXxXvXxXc.I.c.k.f.l.l.M.m.b.y.e./ c.&.1 ; , @ < , o ; 1 ; 0 ( u.b.b.b.b.b.z.s.&.^ #.T w.K & % % % $ o X $ X o X ` ",
"o.dXvXvXxXxXvXxXxXxXxXA.d./ k.d.z.l.z.b.u.e./ k.Z.A.*.9 ; 8 j j 5 1 0 V ^ ( e.t.l.l.p.l.d.&.&.$.O.z J Z % X % X X X X X X X X { ",
"@.dXxXxXxXxXxXxXxXxXxXY.Z.m.x.d.d.u.f.f.e./ x.B.v.h.G U S U &.D j 8 0 S R ( t.t.t.t.t.z.r.&.( ~ v Q z H X X X % X X X X X X X !.",
"r 9XxXxXxXxXxXfXfXfXfXdXm.l.s.d.r.t.e.e./ s.h.#.A N G Q *.&.( Q ~ S c 0 c Q ^ ( E / e.r.( ( ~ Q b V R p X X X X X X X X X X X ].",
"O.9XdXdXdXdXdXdXdXdXdXdXV.! S s.( r.e./ T ~ U N M U x.B.Z.C.z.c.k.&.! M S u c S R Z E / ^ ^ Q U m Q ~ X X X X X % X X X X X w ].",
"aXdXdXdXdXdXdXdXdXdXdXdXsXsX#X! ^ / E R H v N 9 ^ s.c.B.x.k.h.s.s.s.&.~ D 0 7 m S V J J ! T S U D ~ o       X X X X X X X X ] /.",
"dXdXsXsXsXsXsXsXsXsXsXsXsXaX&XL ! E R Z M 0 0 1 0 H H D K ^ ^ ^ K Q H Q V M 9 9 p j C C D S N p 7 X         X X X X X # X X /.2.",
"sXsXsXaXaXsXaXaXsXsXaXsXaX0X&X~ Q Z R L M 0 1 @ 4 n K P P q.P P P n n V v 1 1 9 9 c C C V M u f X         X X X X X X X X w ].} ",
"9X0X0X0X0X0X0X0X0X0X0XaX0X0X0XU H V Z C N 0 9 M m.yXpXpXuXG.G.G.F.F.m.s.^ M 1 5 0 A Z M m m i o.X       X X X X X X X X X  ./.} ",
"6X0X0X0X0X0X0X0X0X0X0X0X0X0X0XL.v V v A M 9 u ~ x.C.tXuXuXuXuXQ.Q.G.Z.c.&.H j 1 0 D V v c u y `         X X % X X X X X = ].} } ",
"[.9X1X1X0X9X1X1X0X1X0X0X0X0X0X%XA A M V M u v ~ ~ *.^ g.b.b.j.m.g.g.&.Q H H M 9 N S M b m y f -         X X # X X X X X ' ).} } ",
").6X1X1X1X<X1X1X1X<X1X<X1X0X1X0X$.M A D 0 3 v ! L c c c v A C n n A A M A D S 9 m S M m u 6 r X       X X X X X X X X = ]. .} | ",
"2.[.dX1X<X<X<X<X<X<X<X<X<X<X1X0XL.S H A m u c Q D M 1 & O o + > > , 9 v A M 7 7 y v v 0 1 f f X     X X X % X X X X X { /.[ } ..",
"<./.gXaX1X<X<X%X%X<X%X<X1X&X<X1X#X~ c M 9 7 9 M D V j 9 1 < < > 1 0 k A V 9 < * 7 N u y p >.a X     X X X X X X % X q [.{ } ..| ",
"4.<.].8X1X1X%X%X,X,X%X<X<X&X<X<XU.( M u 9 < u M H L Q A M A H j G A D V M 9 < < * 7 9 2 G o.r X   X X X X X X X X X `.!.} | ..,.",
"4.<.2.|.1X1X<X&X%X,X%X<X<X<X<X1XU.s.~ 7 < 2 9 M D ~ C Q &.H ! ~ Q Q H k m 9 2 e * 6 < b O.>.= X   X X X X X X X X { '.[ } | ,.,.",
"5.2.:.^.{.1X1X%X%X%X%X%X<X<X&X<XB.s.~ m 2 2 7 b M M H Q ^ U S M c u M c 3 3 2 % + < 9 G U o.#   X X X X X % X X w [.[ } | ,.,.,.",
"6.5.2.:.'.}.1X,X,X%X,X%X$X%X<X<Xc.s.! H 9 < 2 3 < 9 u 9 A c 9 0 1 < 9 u 3 > * + & 9 c H U o.X X X X X X X % X = [.} [ ..,.,.,.,.",
"6.5.4.<.:.].6X1X,X,X%X$X,X,X,X,Xx.r.! V 8 1 + * & & @ < 7 9 1 , @ 2 1 > * * + & < 9 M H ~ f X X X X X % % X % |.2.[ } | } ,.,.,.",
"6.6.6.4.<. .].6X,X%X,X%X%X,X,X,Xk.( C A j 3 < % o X o % + + & @ + X o X % X + > 3 u v S U s X X X X % % o % |.!.[ } } | ..,.1.,.",
"6.6.4.5.4.<. .].6X1X,X%X,X$X$XoXd.^ L v c 9 3 * o . X . X X X o X X . . X & 2 9 5 0 v V ~ e X o X # % % = |.!.] [ } | ..,.1.1.,.",
"5.5.5.5.4.2.<.:.].{.XXo.o.D.Y.C.d.^ C v c c 9 < & + o . . . X . X . + + & 2 7 5 0 v v D H O.s a f q % w [.X.] [ } ,.,.1.,.,...,.",
"6.6.6.5.6.5.<.<. ./.|.>.B.A.A.D.d./ C v 0 0 9 3 & + + X X X o o o + X + & 2 7 9 0 v V A H G M U t a 5.[.{ ] [ } ,.,.1.,.,.,.,...",
"6.5.6.5.~.5.4.2.<.:.5.[.OXC.U.v.d.P J C v j 0 < * + o + o + @ @ @ @ & & * < 9 c j V A D H G M A U '.'.] ] } } | ,.,.,.,.,.,.,.,.",
"6.~.5.6.5.6.6.5.4.<.:. .'.[.L.k.e.P J Z k M 0 9 > & & o + @ & @ @ @ & & > 3 9 h v k C Z H U G 6.[.!.] [ } } | 1.,.,.,.,.,.,.,.,.",
"6.~.~.5.6.6.5.6.6.4.<.:. .5.].'.%.J J z C k h 9 1 > @ + & @ > @ > > @ > < 9 0 M M C C Z H 3.[./.[ ] [ } } } ,.,.,.,.,.1.1.1.1.1.",
"5.6.~.6.6.6.~.5.5.5.2.2.:. .:.!.].'.%.D z C h 0 1 , @ O @ ; ; ; @ > > ; , 0 k k V C U 6.[./.} ] [ [ } } ,.,.,.,.,.1.1.,.,.,.,.,.",
"6.5.5.5.6.5.5.5.~.6.5.4.2.<.:.:. .5.'.[.^.@.M h 4 , ; > ; ; , ; ; , 1 1 8 0 j G >.'.]./.[ ] ] [ } | ..| ..,.,.,.,.,.,.1.,.,.,.1.",
"6.5.~.5.~.~.~.6.~.6.5.6.5.4.2.<.:.:. . .!.`.[.'.~.[ ` a 7 1 : : 7 t f o.<.^.].]./.4.] ] [ [ [ } | ..| ,.| 1.,.1.,.,.,.,.,.,.,.,."
};
