/* XPM */
static char *_e1feefd0f7f4d9ea5fa389d4326b851mIRE5qeFEdNBXlga[] = {
/* columns rows colors chars-per-pixel */
"64 64 242 2 ",
"   c #0B0807",
".  c #0D0B0C",
"X  c #120D0D",
"o  c #15100E",
"O  c #19120F",
"+  c #0E0E11",
"@  c #110F10",
"#  c #0E1114",
"$  c #151213",
"%  c #1A1514",
"&  c #1E1916",
"*  c #131519",
"=  c #1A1718",
"-  c #15191C",
";  c #1D1A1A",
":  c #221614",
">  c #221916",
",  c #291B15",
"<  c #231D1B",
"1  c #2A1E1B",
"2  c #301F1D",
"3  c #1F221D",
"4  c #25211C",
"5  c #2B211E",
"6  c #33231D",
"7  c #39241D",
"8  c #221F21",
"9  c #371F20",
"0  c #1D2823",
"q  c #252223",
"w  c #2C2423",
"e  c #282828",
"r  c #2C2A2B",
"t  c #322623",
"y  c #392721",
"u  c #342925",
"i  c #3B2B25",
"p  c #342B2A",
"a  c #3A2D2B",
"s  c #2A352E",
"d  c #34332E",
"f  c #3D312D",
"g  c #342E31",
"h  c #353232",
"j  c #3D3332",
"k  c #3A363A",
"l  c #412D27",
"z  c #43322C",
"x  c #4F332D",
"c  c #4A352D",
"v  c #433533",
"b  c #473735",
"n  c #453935",
"m  c #4C3B34",
"M  c #453B3B",
"N  c #4C3B3A",
"B  c #523C35",
"V  c #5C3C35",
"C  c #523E39",
"Z  c #60342F",
"A  c #2F4439",
"S  c #4E413B",
"D  c #54433C",
"F  c #5A4438",
"G  c #5D433C",
"H  c #64443B",
"J  c #66493E",
"K  c #6F4D3D",
"L  c #7D6239",
"P  c #3A3742",
"I  c #473A44",
"U  c #1F4D4A",
"Y  c #22524E",
"T  c #325148",
"R  c #235652",
"E  c #245A56",
"W  c #2A5B55",
"Q  c #245E59",
"!  c #315956",
"~  c #345D5A",
"^  c #1F6059",
"/  c #25615C",
"(  c #29625E",
")  c #2C695F",
"_  c #36615E",
"`  c #3A695E",
"'  c #2C6661",
"]  c #396662",
"[  c #346963",
"{  c #3B6A66",
"}  c #3D6E6A",
"|  c #3A7666",
" . c #3E716D",
".. c #4A4747",
"X. c #5B4A44",
"o. c #584846",
"O. c #455D49",
"+. c #585756",
"@. c #644B47",
"#. c #624C45",
"$. c #6B4B43",
"%. c #774B46",
"&. c #64534C",
"*. c #6B534A",
"=. c #785649",
"-. c #624E50",
";. c #6A5856",
":. c #765A55",
">. c #496A52",
",. c #7A635B",
"<. c #6D7556",
"1. c #715E61",
"2. c #447765",
"3. c #41716E",
"4. c #4A746B",
"5. c #7A6664",
"6. c #736B6C",
"7. c #80463A",
"8. c #8C703D",
"9. c #834D49",
"0. c #8B574F",
"q. c #835C52",
"w. c #895B58",
"e. c #927240",
"r. c #88645A",
"t. c #8E6A5B",
"y. c #94685C",
"u. c #97715E",
"i. c #A36E5D",
"p. c #915E61",
"a. c #866A67",
"s. c #8B6C65",
"d. c #946C64",
"f. c #996B67",
"g. c #897067",
"h. c #8B736D",
"j. c #957264",
"k. c #9A7466",
"l. c #9A766B",
"z. c #836E70",
"x. c #996C79",
"c. c #8A7573",
"v. c #957974",
"b. c #9C7C74",
"n. c #A46A67",
"m. c #A97668",
"M. c #A37C6C",
"N. c #B4736C",
"B. c #A37B73",
"V. c #A87977",
"C. c #B77978",
"Z. c #C27B7E",
"A. c #4A856D",
"S. c #578A6B",
"D. c #548C74",
"F. c #5C9777",
"G. c #6F9172",
"H. c #629A77",
"J. c #65A27D",
"K. c #69A57E",
"L. c #78A578",
"P. c #B69442",
"I. c #A59750",
"U. c #9D8279",
"Y. c #869175",
"T. c #A8826E",
"R. c #AA8474",
"E. c #A3837C",
"W. c #A88478",
"Q. c #AC8A7C",
"!. c #B78779",
"~. c #B28C7B",
"^. c #A3917A",
"/. c #B6917D",
"(. c #81AA77",
"). c #C5867A",
"_. c #C58B7D",
"`. c #C98A7D",
"'. c #C1907E",
"]. c #9D7381",
"[. c #B17983",
"{. c #C37F82",
"}. c #6F9883",
"|. c #6AA780",
" X c #6DAB83",
".X c #71AE85",
"XX c #7AA985",
"oX c #908E83",
"OX c #999984",
"+X c #A58A83",
"@X c #AA8985",
"#X c #AB8C84",
"$X c #B48C84",
"%X c #B88A86",
"&X c #AC9388",
"*X c #B39284",
"=X c #B3948D",
"-X c #BB9689",
";X c #BA948C",
":X c #AC9992",
">X c #B89692",
",X c #B59A94",
"<X c #BB9C94",
"1X c #BB9D99",
"2X c #87A484",
"3X c #BDA19B",
"4X c #BDA79A",
"5X c #B9AFA7",
"6X c #C68285",
"7X c #C88386",
"8X c #C88983",
"9X c #CA8589",
"0X c #C59789",
"qX c #CB9B8D",
"wX c #C29C95",
"eX c #C79C95",
"rX c #D19F99",
"tX c #C6A08E",
"yX c #C3A195",
"uX c #CCA397",
"iX c #C3A39C",
"pX c #CBA49B",
"aX c #CAA99E",
"sX c #D2A59C",
"dX c #D4A89B",
"fX c #C4A6A2",
"gX c #CAA7A3",
"hX c #C5AAA4",
"jX c #CCACA4",
"kX c #CCADAA",
"lX c #D3ACA4",
"zX c #D9ACA3",
"xX c #D1ADA9",
"cX c #C7B7A9",
"vX c #CDB1AC",
"bX c #D2B1A6",
"nX c #D3B2AA",
"mX c #DAB4AA",
"MX c #CABFB1",
"NX c #D5B6B3",
"BX c #C9C1B8",
"VX c #CECCC4",
/* pixels */
".X.X}.D.4.3.3.[ ( ' Q Q / Q | J.L.<.=.o.o.o.&.D *.&.X.D S ;.;.n &.o.X.N z S i D a.x.x.].oX.XD.( / / / / / / / / / / Q / / / Q / ",
" X| ( / / ^ ^ Q Q Q Q / ) F.H.+.D D D o.D D N o.D o.&.;.&.*.v.D D o.o.v m z u t f o.x.x.].].oX XA.Q / Q Q / / / / Q / / / / / / ",
"' / / Q Q Q Q / / / / A. X>.k ..v f D N N m S v v o.S z N #.U.D z #.5.;.D o.a u t z N a.x.].].].}.J.[ Q Q / / / / / ( / ( / / / ",
"Q / / / / / / / Q / H.S.P P N o.b D f v z u n b v b D ;.i D :X&.D &.o.o.&.z u u u u i D :.V.[.[.].oX.XA.Q / ( / / / / / / / Q / ",
"/ ( Q Q / ( / / [ |.4.P I a m j b d j a a f w e e u t 6 z F ,.&.u j f z v m ;.a 5 t t l B :.C.[.[.[.[.XXF./ Q / / / Q / / / Q / ",
"Q / Q Q Q ' / |  Xh.I h n v a v f a t p > = ; q j b b D z n g.D u 8 w f a v f m u % 5 t z c l.{.6X6X{.6X2XJ./ / / / / Q ( Q Q / ",
"/ Q / Q / Q |  X%Xf.I a v t j n j a p j > q j v S &.v u a z m m f < 4 a v v v j v z 5 > a i z f.6X6X6X6X6XOXK./ / / / / Q / / / ",
"Q Q / / / |  X%X{.p.o.a j M j d w p < < & q u w p v < < t z B o.v t w t n f a u a f i u 5 u t N C.6X6X6X6X6XOXK./ / / / Q / / / ",
"/ / / / [ .X%X7X{.d.N M M j d p r e d 4 p v v 1 t &.D o.D &.a.;.o.D &.D b a p u < a 5 u z 5 5 t %.6X6X6X6X6X6XOXJ./ / / Q / / / ",
"/ / / Q |.%X7X6XC.#.u r j a 8 p h e q j w > t D ;.g.b.E.E.U.4X&Xh.h.U.s.*.j p w t > w 5 u z % < p C.6X7X6X6X7X6X2XD./ / / / / / ",
"Q / Q F.OX7X{.9Xl.5 p h d q h r k q t t t i #.s.b.Q.Q.yXyXyXjX<X<X#XQ.E.j.u v w < w < 1 w u 6 : : C 6X{.7X7X7X7X6X X| / / / / / ",
"/ ( A.L.C.Z.Z.w.v 5 < ..u q r e ; r u w a B g.*X*XyXaXaXbXlXbXbXiX-X$X*XW.v a t < < 1 & u w z t < 5 f.6X9X9X7X6X6X%X X( Q / / / ",
"/ )  Xa.C.6X%X$.5 g h t p h e ; e e p t a *.E.#XiXyXaXaXnXbXjXaXaXyX=XQ.Q.@.v t 1 < w < > 5 i f > % u V.{.9X7X6X9X6XOXF.Q / / ( ",
"Q F.<.w.{.6X$.c w p u ..; r r = 8 < w t c r.*X3XjXjXjXbXbXbXbXnXbXaX,X$XW.:.i y t 1 > 5 ; < t v u % w :.C.9X7X6X7X6X6XXX| Q / / ",
"| L.L w.C.V.B p r q u r r 8 * q k p p t J l.=XiXaXjXaXbXnXnXbXnXjXjX<X*XR.d.z u u 1 > & < $ 5 f i > & t C.9X6X6X9X7X6X%XJ./ / / ",
"J.I.e.w.C.=.C < q p r ; g = ; e r p w a =.b.=XyXjXjXlXlXnXnXnXjXlXbXaX<X%XR.$.z i t 1 % < & w u z 1 $ 5 :.6X9X6X7X6X7X7X2X2.( Q ",
"(.P.8.y.l.#.p q r a e r 8 = q r k h 1 m t.*XyXjXnXnXnXmXNXnXmXbXbXjXjXaX;X~.t.B l i 1 > & = ; w d u @ < a 0.7X7X6X7X6X7X%XJ.Q ( ",
"I.P.8.$.G m w q j r k g * q e k h w p H M.>XhXkXjXkXnXnXnXmXnXaXjXnXjXaXiX=XW.r.x i t < & ; $ q u t $ = t *.7X9X9X6X7X7X7X2X| ( ",
"P.P.8.G n t ; q p q r e ; e p p p w m s.b.&X3XhXhXkXvXvXnXnXbXaXjXjXjXaXiX<X#Xb.F B t 1 & & $ < 4 t X = w N n.9X7X7X7X7X7X&XF.Q ",
"P.I.=.B a 5 q r g e r q < k a p p a :.;.o.;.-.1.z.c.:XkXhXjXjXiXjXjXiX3X=Xg.-.C u t 5 1 & = $ ; < w w $ 5 l d.{.6X9X9X9X7X6X.X/ ",
"8.8.F z t < q h h h k ; = j p p p C N ;.1.o.M k r g n ;.=X3XfXyX3XyX<Xh.N p q q 5 w 5 > % = $ $ ; < < $ w u @.C.9X6X9X7X7X7X2X2.",
"J J m i 5 < e p k r r = r j a p a < M 5.c.z.z...p w w b &.&X3XwX<X*XE.D j w q v D c y 1 % $ $ $ % < > $ & t B w.6X9X7X7X7X7X&XF.",
"a c z a 1 q h h r q r = v a p p t &.U.=X,X1X=X+Xc.,.&.;.5.+X>X<X;XQ.r.G @.;.h.U.b.s.V y > & $ $ = < > $ = 5 c =.C.7X7X7X7X7X8X X",
"b c f t w q h r r e q r j f p v o.a.+X&X&X+Xv.h.s.g.h.c.v.#X<X<X-XM.:.s.h.v.5.a.r.r.$.7 , % $ $ $ > > $ = q a G m.C.).).8X8X8X2X",
"C D j 1 < q g q ; < ; j v a a C ;.g.h.:.;.o.M j a o.;.:.v.&XfXjXuXu.:.*.;.:.v M j b z 6 , : % o & & > $ $ < u B q.m.`.`.8X`.8XOX",
"m b p > < g q q = = $ k p j a :.,.5.@.N p T ..h +.6.C &.5.+XfXxXuXj.J $.o.6.h e ..h 1 1 < : % X $ & > % $ = 5 l $.9.`.`.).`.`.&X",
"N b p & g q ; = = = ; k j v v ,.c.g.a.-.o.;.-.5.;.5.:.=.a.&XjXmXdXm.H V *.6...S 1.b t 1 1 < : $ $ % , 5 $ = < f V q.C.).`.`.`.*X",
"N j p q p = $ . = * j j a v C a.b.b.b.E.+X+Xv.c.b.v.v.g.+X1XnXnXzX!.y.:.w.q.w.a.s.r.=.#.V 6 > % $ & > 1 & = > t B J y.!.).`.`.%X",
"N n r ; = $ . . = < M j a j G :.B.@X$X$X@X@X@Xb.d.d.b.&X,XiXkXzXzX0Xm.r.d.w.d.k.d.t.r.d.q.l 5 : $ o > > & $ & 5 z G q.m.).).`._.",
"M a k ; $ e . * ; w M j v a :.:.E.;XwXwX;XwX%X$X=X@X,X3XwXjXnXzXdX0X!.m.M.B.B.B.W.Q.!.!.k.H 6 > $ $ % % O = % 5 t m F y.).`.).`.",
"M j p = @ = . ; e k j j f a ,.h.@X>XwXgXuXrX0XqXeXeXaXwXiXgXjXzXmXqX/.!.!./.%X8X0XqXqX0XV.q.7 1 > X X & O & > < u z G q.m.`.Z.`.",
"m j j = * * $ = M h p j a a :.s.@X1XjXkXxXlXsXsXrXrXuXiXiXjXxXlXzXqX'.!._.0XqXqXrXdXuXqX!.r.H , > $ . X X o 4 1 t z c G y.).).).",
"b j p $ = ; e p p u a u 6 b ;.v.@X3XkXNXNXnXlXsXuXeXeX$XwXgXxXlXsXqX8X!.m.0XqXpXsXzXdXsXqXM.V , % o . . . = $ < 5 a z B =.N.!._.",
"z p w ; = 8 r e p a p u t a g.b.+XfXkXNXNXNXgXeXqX!.f.>XgXpXxXlXrXqX0X8Xm.m.%X0XuXpXpXpXyX~.=., X X .   . $ $ % 5 t i l J m.!./.",
"z f e ; = < q < j u t 1 a u :.b.>X3XkXvXkXkXpX;XC.y.l.wXjXnXxXkXrXqXqX0XC.9.m.%X;X;XwXwXwX/.:., X       . o $ % < 5 t u x !.C.R.",
"j p q q ; < e w w < = % 1 t :.v.>X3XhXhXiXiX;XW.y.d.#X>XiX1XiXwX!.%XM.m.m.K 0.V.$X$X;X*X~.R.q.O X   X . . $ X % & 1 t t B 0._.^.",
"p e ; q q = < < < $ X & 1 2 ;.b.=X1X3X1X,X*XW.d.y.@X=X>X+Xw.V.V.l.t.%.K u.r.q.y.B.W.Q.W.R.l.=.> X X X . . X X = < 1 w t B 0.N.OX",
"w < = q e q < & $ . . p : 2 o.+X=X<X,X,X&XW.d.r.E.=X,X,X,X&Xd.s.=.=.K r.R.m.r.q.d.l.B.l.k.t.$.$ > $ X X . $ X = ; < 1 t c k.m.Y.",
"w > % ; q < < & o . . e < 1 b #X=X,X=X=XE.d.q.b.=X3XfXhX3X=Xb.d.l.j.u.T./.T.y.r.r.d.k.k.j.t.J % X & o o @ $ o = > < t B c V m.XX",
"e < = ; e ; q > X o . X > : u U.=X1X,X=X@Xr.j.U.=X;X>X;X$X@XV.n.n.n.n.m.m.m.u.t.t.k.k.k.k.y.J X O < O $ $ $ X & < < 5 c z F j.J.",
"< & ; ; ; 8 q < & X @ X & $ 1 +X,X3X<X<X*Xk.t.H V p.f.f.d.p.w.9.9.9.%.%.K Z x H k.l.M.M.l.j.i X < : % = * * $ & < w 6 z G H Y.S.",
"% % & ; = ; ; u > $ = & & > < +X,X3XiX<X<X*Xl.V 9 z.,XcX1X,X5X=XB.+XW.0.j.Z : %.T.*XQ.R.T.j.1 % > 5 > & < @ & & < 5 f y l G G.` ",
"> % & ; = = & q < & & : > $ % g.,X1X3X3XiXyXQ.E.q.z.:XcXVXMXVXMXBXcXcX&XW.G %.l.Q.-X~.W.T.t.% % % 1 5 & q $ < > 5 t u a a ,.K.R ",
"4 $ = ; ; = q & > < < < w & $ ;.&X3X1XiXiXyXQ.*X,XV.n.l.%XB.cX4X5X4XU.9.7.0.m.R.~.*XR.T.l.*.% % o < 5 ; > X ; 4 5 t u u l G.A.E ",
"O.$ $ $ $ ; q e ; < ; < > ; X p U.<XiX<XiXwX$XyXiXiX>X%XC.N.n.n.n.N.C.C.N.i.R.~.*X*XM.M.t.6 % O % % t > & X & ; w t 5 4 i  XW Q ",
"K.= X $ $ $ ; q r q < ; < q & & g.&X<X<X3XiX<XiXfXiXhXfXwXC.C.N.C.C.N.N.m.R.R.~.-XT.k.u.*.$ % & > : t > > $ ; = < < < % O.D.R E ",
"D.O.$ @ X . $ ; < p a < > > < X o.U.=X,X,X3XiXhXjXfXhXfXiX>X$XQ.Q.$XR.~.R.R.R.~.R.u.t.=.6 % O O w , t % > $ $ = ; % % < K.W E Q ",
"` K.3 . . . . q = = ; < > < w o $ a.+X=X,X3XhXhXjXjXiXiX<X;X;X;X@X$XQ.R.T.~.*X/.l.t.=.x $ o $ & 1 5 5 < < $ o X $ $ % O.D.Y Q Q ",
"] A.4.$ . . = r < $ $ = = 4 < = . j a.#X=X,XiXkXvXvXjXiXiXwX>XwX;X;X$X!./.tX/.T.t.r.J % % t < : 1 1 p 1 j % % $ $ = s |.Y E Q Q ",
"{ ~ J.s $ $ $ = < X X X X = w < $ X o.c.+X=X<XhXvXNXnXjXlXlXpXsXlXmXzXuXuXtX~.u.r.*.5 O > 1 < < 5 5 t f u % > % $ ; H.2.E Q Q / ",
"{ ] `  X4 $ & = = X X X $ $ < < < . = o.a.+X=X<XhXvXNXnXlXxXlXzXsXzXdXdXtX/.k.=.$.7 % & 4 < 5 < w t < 1 5 > < > & O.H.R E Q ( ( ",
"} ] _ 4.H.% & = & % % ; ; $ = = = % X < N 5.U.+X=XfXvXvXnXxXgXpXsXuX0X%X!.u.=.H 6 % & & & & 4 & w t % 1 1 O & & d |.Y R E / / / ",
" .} ] ~ F.2.; > & $ = = ; = X ; $ X X $ w S #.g.v.+X<XiX<X<X;X$X$X$XR.M.y.J V X X $ X = > & ; = 5 > = = % 1 % 4  XW Y Q / / / / ",
" .} { _ ~ J.>.% % X $ = ; = * @ $ . $ = = 5 C o.&.,.a.E.#XE.b.b.l.k.t.=.c 7 X X X @ @ ; e < % % 5 % = = $ t 4 .X` R E Q E / ( ( ",
" . .} { _ ! K.O.o X $ $ ; * * $ X . X $ $ X > z #.o.o.&.C *.@.G H D l 7 , X X X $ @ $ & ; ; = $ & & & $ X = .X2.Y E E Q Q ( ( ( ",
"3.3.} { { ~ ! J.>.$ $ % % = ; = . . . @ $ $ X > B o.#.D m z i y 7 7 7 , O X X X $ $ $ = = 4 * e & 4 % $ * .X2.Y R E Q Q ( ( ( ( ",
"} } 3.} { ] _ ~ J.S.= $ % > ; = = . . . $ $ o @ $ u D B m z l i y 7 , % X X X @ X $ * = = & = O > < $ q  X` Y R E Q ( ' ( / / / ",
"3.3.3.} } } _ ~ ! D..X4 $ & ; < ; . . . + * * + $ * * * * * * < 5 > % % o X . $ $ * = ; = = $ % 5 O O.|.W U R R ( ( ( ( ( / ( Q ",
"3.} } } 3.{ { ] _ ~ 2. XT o $ % X . + + + ; $ # # + * # = * * * * * * = $ $ $ * $ * = ; ; ; $ % s H.H.Y Y R E Q ( ( / / ( ( ( ( ",
"3.3.}  . . .} { ] _ ! ! H.J.e X . . . . @ @ + . # # # * = * * * * * * * $ * = $ @ $ = < 4 < = O.K.2.U Y R E Q ( / ( ( / ( / / ( ",
"3.3.3.}  . .}  .} { _ ~ ! 2.J.S.0 . . . . . + + + + + * * * # # * * * * * = * $ . $ = < p O.K.S.Y U Y E R E ( ( / ( ( ( ' ( ' ( ",
"} } 3. . . .3.} } { ] ] ~ ! ! 4.J.S.s # . . + # + + # # # # # # - * * * * - $ $ $ = e >.K.D.W U Y R E E ( ( ( / / ( ( / / ( / ( ",
" .} } }  . .} {  . .{ { ] _ ~ ! ! 2.F.K.>.s * + + # + + * * * # - - = = * # . s T S.K.A.Y U U R R Q Q Q / ( / / ( ( ( ' ( / ( ( ",
" . .3. . . .3. .3. .{ } { { ] _ ~ ! ! ~ 2.F. XF.>.T s 0 - * # + * 0 s A T 2.J.J.S.` U U Y Y R E / Q Q ( Q ( / ' ( ( ( / / ( ( ( "
};
