/* XPM */
static char *b8a8cf000a8a4573b2f43a2162e07330tP1iVbI2Ie2YMelx[] = {
/* columns rows colors chars-per-pixel */
"64 64 247 2 ",
"   c #090606",
".  c #0D0A09",
"X  c #140A07",
"o  c #130C0B",
"O  c #190E0B",
"+  c #17110E",
"@  c #1C110E",
"#  c #110F10",
"$  c #1C1413",
"%  c #191515",
"&  c #24140D",
"*  c #2B110D",
"=  c #2A160E",
"-  c #221612",
";  c #2C1513",
":  c #251915",
">  c #2B1B14",
",  c #241A19",
"<  c #2C1E1A",
"1  c #371B15",
"2  c #321D14",
"3  c #2D211C",
"4  c #372216",
"5  c #33231B",
"6  c #3A251C",
"7  c #3C291E",
"8  c #2E1F21",
"9  c #222126",
"0  c #2A2528",
"q  c #332522",
"w  c #372926",
"e  c #3C2B24",
"r  c #3E312B",
"t  c #2A2933",
"y  c #2D2B3A",
"u  c #322B37",
"i  c #20303D",
"p  c #353439",
"a  c #421F17",
"s  c #45281B",
"d  c #512A1C",
"f  c #432D23",
"g  c #482C24",
"h  c #552C24",
"j  c #453126",
"k  c #4B3224",
"l  c #44332A",
"z  c #4A352A",
"x  c #4C392D",
"c  c #523325",
"v  c #57382A",
"b  c #533A2D",
"n  c #402F30",
"m  c #4D3B32",
"M  c #453538",
"N  c #543C32",
"B  c #583B37",
"V  c #653B2B",
"C  c #74362B",
"Z  c #663938",
"A  c #773D38",
"S  c #544036",
"D  c #5B4234",
"F  c #574439",
"G  c #64412E",
"H  c #644434",
"J  c #684736",
"K  c #644B3C",
"L  c #6C4B3C",
"P  c #774839",
"I  c #76533C",
"U  c #303B48",
"Y  c #543944",
"T  c #36455B",
"R  c #384760",
"E  c #3B4B63",
"W  c #3E4F6B",
"Q  c #3E5264",
"!  c #3F516D",
"~  c #3B5974",
"^  c #594842",
"/  c #515052",
"(  c #634C42",
")  c #744A45",
"_  c #6D5245",
"`  c #685449",
"'  c #735343",
"]  c #795847",
"[  c #745B4D",
"{  c #6E5653",
"}  c #775A54",
"|  c #6C625E",
" . c #7B6457",
".. c #404F6D",
"X. c #435666",
"o. c #41526E",
"O. c #455A6C",
"+. c #435471",
"@. c #445C73",
"#. c #465E76",
"$. c #724C6A",
"%. c #74506D",
"&. c #7A556A",
"*. c #57656F",
"=. c #4B6175",
"-. c #45637D",
";. c #4E657B",
":. c #50677D",
">. c #51697E",
",. c #736E71",
"<. c #854F3C",
"1. c #926835",
"2. c #854646",
"3. c #994C4A",
"4. c #835C44",
"5. c #865B48",
"6. c #875856",
"7. c #965251",
"8. c #A7534C",
"9. c #A95452",
"0. c #BA5B58",
"q. c #85624C",
"w. c #8B6649",
"e. c #8B644B",
"r. c #92654D",
"t. c #98674D",
"y. c #856454",
"u. c #896958",
"i. c #976A56",
"p. c #936D5B",
"a. c #92715A",
"s. c #96735C",
"d. c #9C735C",
"f. c #A16E56",
"g. c #B96D57",
"h. c #A3745C",
"j. c #A8775A",
"k. c #895D70",
"l. c #8A6864",
"z. c #956867",
"x. c #8A7569",
"c. c #947364",
"v. c #987767",
"b. c #9C7B6A",
"n. c #956675",
"m. c #96667A",
"M. c #98677B",
"N. c #9A697D",
"B. c #8B7274",
"V. c #997B73",
"C. c #A96867",
"Z. c #A47A63",
"A. c #A67A68",
"S. c #B37969",
"D. c #AE6B72",
"F. c #A67977",
"G. c #B87679",
"H. c #C5695D",
"J. c #C7775A",
"K. c #C76461",
"L. c #CA7161",
"P. c #C37B7D",
"I. c #9C806D",
"U. c #9D8374",
"Y. c #9A877A",
"T. c #A8816A",
"R. c #AC836C",
"E. c #B68569",
"W. c #A78677",
"Q. c #AB8472",
"!. c #A48B7C",
"~. c #AB8C7C",
"^. c #B88A76",
"/. c #B48C7A",
"(. c #AB917E",
"). c #B3927E",
"_. c #BC917A",
"`. c #C98F4C",
"'. c #C98953",
"]. c #D0A248",
"[. c #C38D77",
"{. c #C4937C",
"}. c #C8977B",
"|. c #536A80",
" X c #4B718B",
".X c #4E718C",
"XX c #5D7B87",
"oX c #577589",
"OX c #5E7C89",
"+X c #4A7495",
"@X c #4D7A9C",
"#X c #6B768F",
"$X c #607D8B",
"%X c #707996",
"&X c #4F7DA0",
"*X c #936F85",
"=X c #AD7581",
"-X c #C67E82",
";X c #C87F82",
":X c #5B8299",
">X c #708794",
",X c #5687A7",
"<X c #5588A9",
"1X c #538AAD",
"2X c #548EB3",
"3X c #5E8CB2",
"4X c #5793B8",
"5X c #5794BA",
"6X c #5A96BC",
"7X c #6A8DAD",
"8X c #6797B8",
"9X c #5999C1",
"0X c #599AC2",
"qX c #928A91",
"wX c #A18F85",
"eX c #AC8D82",
"rX c #B68B85",
"tX c #AC9383",
"yX c #A79489",
"uX c #B39483",
"iX c #BB9483",
"pX c #BA9887",
"aX c #B4968A",
"sX c #B39A8C",
"dX c #BB9B8C",
"fX c #AC8D94",
"gX c #B99D92",
"hX c #BAA296",
"jX c #8692A5",
"kX c #B7B4AF",
"lX c #C68184",
"zX c #CA8184",
"xX c #C89885",
"cX c #C29C8A",
"vX c #D19B84",
"bX c #C79C93",
"nX c #CBA18C",
"mX c #D6A48A",
"MX c #D2A38D",
"NX c #C5A397",
"BX c #D3A592",
"VX c #D5AA94",
"CX c #D9AB98",
"ZX c #DCB29C",
"AX c #E1B29E",
"SX c #CEA9A2",
"DX c #E4B7A5",
/* pixels */
"0X0X0X0X0X0X0X:XOXXX$XOXOXXX$XOX$XOXOX$XOX$XXXXXXXXX:X:X,X,X,X3X3X,X:XoX|.#.@.o.! ! ! o.+.W +.+.o.+.o.o.o.+.! o.! ! ! ! o.! o.! ",
"0X0X0X0X0X0X0X:XOXOXOXOXOX$X$X:XOXOXOXXX$XXX:X3X4X0X,X.X*.*.,.,.kXqX>X7X6X6X2X@X@.+.! ! o.W o.! W ! ! o.! +.o.! o.o.! o.o.! ! ! ",
"0X0X0X0X0X0X3XOXOX$XXXOXOXOX$XOXOX$X$X$X4X0X7X| ` e b e 6 S _ [ [ D K [ u.W.U.>X4X6X@Xo.+...W ! +.W ! W ! o.o.o.o.o.o.! ! o.o.! ",
"0X0X0X0X0X,XOXOX$X$XXXXXoX;.#.O.!  X6X<X| k ' L tX} D x m l j F e 5 N D ' a. .] V.&.#X6X2X#.W W o.o.o.o.! o.o.! ! +.o.o.! ! o.o.",
"0X0X0X0XoX|.;.O.O.! E ! ! ! !  X6X$X^ k 2 b D } u.l.K m S F 3 , $ + - 5 f D _ _ ] x.$.$.,.3X2X#.o.o.o.o.o.o.o.+.! ! W ! W W o.o.",
"0X0X2X~ ! +.+.+.W ! W o.o.#.2X:XF S x k z L [ ' y.[ K 5 j F < $ O o . . , < b ' ' u.z.$.$.$.#X4X&Xo.o.! ! o.o.o.W o.! o.+.! +.! ",
"0X<Xo.o.o.W o...o.! o.o.@X4X/ l 7 x ( D b k N x _ ( V.- 5 N 6 3 $ O     . , 3 D H I y.&.$.$.$.$.#X5X#.W o.+.! o.o.o.o.o.! ! o.o.",
"+X! o.+.! o.o.o.+.o.! 1X$XF e e S ` F K k 7 > 5 K b V.2 x ' D m > $ o . . , < e D D ' { &.%.$.$.$.%.0X+X! o.+.! W ! +.! o.W ! o.",
"! ! W ! W W ..+.+.! 0X*.6 5 l m S S k N 6 > & 5 ( K k H 4.d.i.I H 4 > - o : - f N x b _ } &.$.%.%.$.%.3X<Xo.+.o.W o.W ! ! o.o.W ",
"W o.! ! ! o.W ! +.0X/ F ` 5 l j ( b x 7 5 > $ < F H v 4.j.[._._.R.e.G s f = r f 6 7 j D ] k.k.&.&.&.%.%.7X<XW ! o.W ! +.o.o.o.! ",
"! o.! o.! o.+.@.0X/ e m w j f b _ z j 5 5 @ $ 3 S v 4.j.E.}.mXmXmXR.5.V c f z l x > 7 K _ ' l.n.n.k.k.k.k.7X<X+.! o.W W o.o.o.o.",
"W ! o.W ! ! +.6X/ l q 5 S ( [ f j e e - - @ , < N v t.E.}.mXmXCXCX}.S.<.J c 6 N e 5 e D D G u.u.N.*XN.m.n.n.7X,X! o.W W ! o.o.o.",
"W W o.+.W W 2X/ w 3 5 k D K m 5 q > , : - - 3 q F J j.}.}.mXVXZXCXMXE.f.4.V s z f 6 5 z D k H J l.z.n.n.n.m.n.3X+Xo.o.o.o.o.o.+.",
"! o.W ! W @XoX- 3 5 k b F f > < < - : - - < 3 q s <.S.}.xXnXmXZXAXmX{.E.f.5.V s 7 4 > j b k c c J l.n.m.m.n.m.m.0X#.o.o.! ! ! o.",
"o.! o.+.#.,X$ 5 e f N k 6 5 - < > < : < : - < w v t.[.}.mXMXMXZXZXCX}.E.R.t.P v 4 4 > 4 j s k v K I 6.n.M.m.M.M.*X5Xo.o.o.o.! ! ",
"o.W o.! 6Xu 5 6 k z j 5 - q - < < < w < 3 5 5 2 4.E.{.vXMXMXMXMXVXVXnX[.E.j.e.P d = > 4 f 7 4 N N D ' z.M.M.M.M.M.%X@Xo.o.o.o.+.",
"! ! W @X-.r 6 j b z 5 q : < < < < > 5 3 e e e J j._.xXnXMXMXBXBXCXCXnX{.E.R.f.5.J s = & 6 k b s b c H u.z.M.M.m.m.M.8X#.o.o.o.! ",
"! ! o.5X< 5 k z j > 5 < < - 3 : 5 < > : 5 5 c r.^.xXMXVXVXBXBXBXCXBXMXxX^.E.j.t.<.v 2 & e j f 4 4 4 d H 6.M.N.M.m.m.*X1Xo.+.! o.",
"o.o.1XT 7 6 x l > 5 3 5 < w r e e e q > 2 z i.^.xXMXVXZXZXDXCXZXCXCXCXnXxX{.E.j.t.P s & 2 e & 2 4 s k v ) n.n.m.m.m.m.8X@.! W o.",
"..o.0X> k x b e 5 > 3 > < > 6 2 > < > 5 s p.R.{.nXBXCXAXDXDXDXDXZXZXZXCXMX}.{.E.j.r.V & > 7 z > 2 > 4 g B 6.m.M.N.m.M.*X2X! +.o.",
"! @XX.x b ( 5 > 6 : : < > 5 e > > < > 2 5.v./.pXnXVXVXBXCXCXAXDXZXDXCXCXBXBXxX{.^.h.I = & 6 k 6 4 4 = = g } l.M.m.N.M.N.6X! o.o.",
"W 5Xm m F r q 5 5 - < 5 2 e 2 5 > 5 2 N D l.uXuXeXdXNXNXbXNXVXVXVXVXCXBXxXxXxX_.^.Z.q.s & > e 6 2 6 2 5 4 g l.m.m.M.M.M.%X@Xo.o.",
"-.,X^ l 2 3 q q 5 5 < 5 4 6 4 2 2 > 5 e M M { F { } x.V.eXcXcXcXnXxXxXiXiXQ.b.y.} K z 5 & = 5 f 6 5 > 7 @ b l.M.M.N.N.N.N.6Xo.! ",
"&X/ F e 5 5 5 > 5 > 5 6 7 4 4 2 2 > 5 ^ M M 0 9 , q < B [ W./.)._._.xX).Q.y.b q q , 3 5 5 & > 7 f 6 2 l 2 5 N n.N.N.N.N.N.6X+.o.",
"2XS F - 3 q 5 5 5 e 6 e 6 4 2 f 2 < e ^ x.x.l.l.` } ` {  .c.T.R.Q.R.Q.T.s.[ z 5 z _ _ H > & > 6 e 5 6 > 5 < 7 n.N.N.N.N.N.*X+X! ",
"4Xl < q q - < m j x f 4 s k 1 s 4 z { x.eXeX~.W.T.s.u.p.c.p.d.A.A.A.Z.d.4.I 5.u.v.R.T.i.J > @ 6 5 f 4 5 > > > l.N.N.N.N.N.*X2XW ",
"oXe - - 3 l f l b l 7 6 2 2 v v K  .c.V.W.b.v.y.] ' ] 5.5.p.v.Q._._.R.t.<.4.e.e.i.Z.h.i.] 6 $ & > 5 = 2 = f q n.*XN.*XN.N.*X6XW ",
"X.@ : q r e l e e 4 6 4 s c v L q.u.u.y.s w # , , w k V } v.T.iXvXCX{.4.I s e , e m V L J d . @ > < 5 > & x 4 l.N.N.*XN.N.N.0X+.",
"p - < - & q 4 j 2 > > 4 c H ' q.y.y.5.H D K m e l  ._ H p.W.T.xXBXAXCXh.c m < % r e = s V v o O = & & > & f 2 =XF.F.=XN.N.N.7X-.",
"t : - - : : : > 2 & > 7 B L 5.u.s.v.v.b.F.~.~.A.b.p.c.c.Z.~.^.cXCXCXAXvXr.r.v.v.d.s.h.r.P I X - = & = = s 2 4 -X=X=XG.G.G.G.jX X",
"3 < - - - $ : > s f - z L 5.u.v.A.A.Q.^.Q.Q.A.Z.A.A.^.^.^.^.cXcXBXCXDXmXj.S.Z.r.t.t.t.h.f.5.& & ; & & c ) * 2.-X-X;X;X-X-X-XqX+X",
", < - - $ o @ ; g c 7 H } p.c.T.~./.iXiXxX[.[.^.[.^._.xXrXrXdXcXMXBXDXmXE.S.{.{.[.[.{.[.E.t.c = = & > g ; s G.;XzX;X;X-X;X-XfX+X",
": < - @ @ X & k 1 c v _ p.c.v.eXpXgXbXbXbXbXvXvXxXxXxXxXiXcXcXvXBXBXDXBX[.E.[.vXMXmXvXvX}.S.v & & & = 2 h D.zXzXzXzX;XlXzXzXfX@X",
": - $ 3 O o ; h a K H [ c.v.W.tXsXgXNXbXSXCXbXBXxXxX{.xXiX^.iXvXBXAXDXCX}.j.[.vXmXVXBXmXvX_.J O @ ^ 2 2.P.lX;XzXzX;X-XzXzX-XfX+X",
", , $ $ < o s v h L '  .c.V.eXaXsXhXNXSXSXSXBXbXxXxX_.^.A.xXxXbXbXVXVXBX}.[.j.{.vXMXmXmXBXxXv.o o O B P.zXzXzXzXzXzXzXzXzXzXfX+X",
"t 9 $ $ $ o 2 a c L 6. .v.V.U.aXgXNXNXSXSXSXbXcX_.S.Z.A.A.bXrXW.rX/./.E.f.S.f.j.^.[.xXMXxXxXR.o O B G.-XzXzXzXzXzXzXzXzXzXzXqX X",
"p $ % % , , $ : 2 g v. .x.U.tXtXsXhXNXNXgXbXiXQ.Z.i.R./.A.F.P Z ] A.c.i.d 4.t.t.h.S.^.{.{._.A.X @ 2 -XzX-XzXzX;XzXzXzXzXzXzXjX-.",
"T $ $ 9 $ , < > 4 c c.u.V.U.tXeXsXgXgXaXgXeXQ.i.5.F.iXQ.W.F.l.l.z.6.5.P v 4.f.t.t.h.A.A.E.A.I X O f C.;XzXzXzXzXzXzXzXzXzXzX8X! ",
"@.$ $ % , $ $ - H c.c.c.x.U.(.sXaXsXdXpXuXv.4.' v.W.iXW.l.l.( ^ ' 6.] H k ' E.j.r.e.i.d.d.i.L O @ > 7.C.C.D.D.G.G.P.zXzXzXzX6XR ",
":Xq $ $ $ $ o & u.W.T.b.V.Y.~.sXaXtX).(.Z.4.(  .( ` y.{ F F q q g ' } l 6 N p.d.q.I 5.d.h.e.S 8 @ < B Y Y ( { ) } z.G.zXzXlX2XE ",
"6Xw < , $ o o O v.W.W.u.U.!.aXaXtXtXtXuXT.] x.x x ` ^ { B w n f ) p.u.z < f H ] N b P i.t.4.4 u q n u y y y y y y Y z.P.zXfX,XW ",
"1Xp q , $ % . .   j f f U.!.tXaXtXtXtX).Q.v.U.V.v.Y.x.F.F.F.z.z.D.C.C.6.) e.6.' H H J t.e.e.> w u w u y y y y t t 0 ) D.zX7X#.W ",
".X;.q , % % o .       l V.tXtXtXtX(.yXsXuX).~.A.c.u.Z Z ) 2.6.7.7.2.2.2.2.A P P V 4.5.j.e.u.@ - : < u y y y y t 9 9 M z.P.6XR o.",
"O.0X$ - $ $ o .       e U.!.tXaXsXtXsXtXuXdXuXuXuX~.F.F.F.rXD.C.C.D.G.^.C.S.i.h.t.d.R.R.e.L o O f B Y Y M M u t 9 9 0 ) F.2XR o.",
"@.1Xu - $ $ o o .     , b.Y.eXtX~.tXtXsXsXdXpXdXsXpXaXgXeXrXrXrXG.G.G.G.D.S.f.h.j.Z.E.s.e.K $ h 3.7.7.3.7.2.Z 0 9 9 9 r 3X! E o.",
"=.;.1X, $ $ o o $ .   . b.!.!.!.aXtXtXtXtXdXdXaXsXdXgXdXeXeXW.F.z.p.z.i.i.5.r.R.Z.T.Z.e.e.( > 3.9.8.9.9.9.3.A 0 9 9 9 t 6XR W ! ",
"=.O.6Xt $ $ % % O o . . U.!.!.U.!.~.~.~.aXuXdXpXtXuXpXgXaXeXv.u.y.y.y.y.5.r.A.T.Z.Z.s.e.e.> k 8.9.9.9.9.9.3.A 0 9 9 9  X-.R ! o.",
";.@.-.<X9 $ . o o o . . x.W.!.!.W.!.W.~.~.aXuXsX!.dXuXdXpXW.Z.i.p.p.i.i.d.Z.E.j.T.h.e.I ] > V 9.g.'.J.H.0.9.A 0 9 9 y 6XT E W ! ",
":.=.O.5XU . . # o o . .  .~.!.U.b.U.U.W.~.W.tXyXsXtXsXpXpXuX/.Q.A.d.v.Z.R.E.R.T.j.i.q.] L c P g.`.].`.H.K.0.2.0 9 9 +X#.R o.! o.",
">.;.=.O.1X.   . o o . o  .dXc.W.U.U.U.~.tXtXsXsXsXhXsXgXuX)././.^.Q.^.^._._.E.T.h.r.4.] 4 V <.g.`.].`.H.K.0.2.0 9 U 1XT E o.o.o.",
">.:.;.O.@X~ . . % % o . [ dXuXc.c.b.I.W.!.!.tXyXhXtXsXsXhXaXpXQ._./.^.R.R.^.^.R.d.e.I ' d '.H.J.`.].'.H.H.0.2.0 0 2X! E ! o.o.o.",
";.;.;.@.X.2Xi . $ $ o o } dXdXc.u.c.v.U.U.U.yXwXwXhXsXtXhXsXeXW.A.Q.W.Q.T.Q.Q.R.u.] L > 1.g.H.J.`.].'.H.K.0.2.0 +X+XR E W o.o.o.",
">.>.;.@.O.@.2X% $ O . o [ pXNXuXc.u.l.v.I.W.Y.Y.wXyXyXsXwXwX!.!.W.U.b.v.p.b.d.v.q.] k k V g.0.H.'.'.J.H.K.0.A Q <XT E ! o.! o.! ",
"|.>.;.;.=.X.|.2XO o o . [ pXNXdX).c.u.y.u.x.x.Y.wXY.wXyXyXY.x.x.l.x.u. .] u.y.u.] c 1 C v 3.0.8.g.L.H.K.K.0.&.0XT R o.o.o.o.o.+.",
">.>.|.;.=.@.X. X2XX o o [ dXdXpX).~.b.u. . .l. .x.B.Y.B.Y. .x.{  .[ [ [ [ J [ [ f 1 A V 3.P P 8.H.H.0.K.K.D.0XT R E ! o.+.o.+.+.",
":.|.>.>.;.=.@.O. X2Xo . [ iXNXdX).W.W.c.a. . .[  . . .x. .{ ` ( ( F F F K F F H @ & V C h A C 3.0.K.K.K.F.0XR T R ! o.o.o.o.o.o.",
":.;.>.>.>.>.#.O.X. X1X% } cXcXdXpX~.uXW.v.a. .[ [ [ ` ` ( S S N x x z z z j c 4.o 5 O @ * d A C 3.H.K.=X5XR T E o.o.o.o.o.o.o.o.",
">.:.>.>.>.:.;.=.O.X.-.2XB.cXcXcXdXpXpX~.W.b.a.y.[ K K D F z z k j j j 7 s G I ]   & > g a s h 0.K.K.qX1XT T R o.o.o.o.o.+.o.o.+.",
":.:.>.;.;.;.>.;.=.O.X.@.2XjXcXcXpXpX).).).~.A.a.u.] ] _ D b b k f s k v H I 4.I     X O & > h 9.D.8X+XT T R W o.o.o.o.o.o.o.o.o.",
"|.;.;.|.;.>.>.>.;.=.@.O.Q +X8XhXcXpX).).).).W.W.I.v.a.u.q.] I L J H H J I ] e.J     O @ - 4 2.qX0X! T T E W o.o.o.o.! o.o.o.o.o.",
">.;.>.>.;.;.:.>.=.>.;.@.X.E X.5X8XsXpX).)./.).(.~.W.I.a.a.u.5.q.I ] I I ] e.r.J o o + - > / 4X+XT T R E W o.o.o.o.o.+.+.o.+.+.o.",
">.>.;.;.|.>.:.>.|.;.;.=.=.O.Q Q @.4X8XyX/.).uXuXuX).T.b.v.s.u.e.e.q.4.4.e.r.e.J o @ $ T 0X<XT T T R E ! o.o.o.o.+.+.o.o.+.o.o.o.",
";.;.:.:.;.;.>.;.;.=.>.>.;.=.@.O.X.Q @.1X0XjXyXaXuXuX/.Q.T.v.s.s.a.u.q.e.e.r.r.( p @X5X+XU T T T E W o.! o.o.o.+.o.o.+.o.o.o.o.o.",
":.>.:.:.>.;.>.>.|.>.|.:.;.;.=.#.O.X.X.X.E  X<X6X8XjXqXwX!.b.v.s.s.u.u.,.,.>X8X2X@X#.T T T T R E ! W o.o.+.o.+.o.o.o.o.o.o.o.o.o."
};
